<svg width="26" height="26" viewBox="0 0 26 26" fill="none" xmlns="http://www.w3.org/2000/svg">
<g clip-path="url(#clip0_2_23923)">
<path d="M25.5 5.24844C24.5703 5.65625 23.5797 5.92656 22.5469 6.05781C23.6094 5.42344 24.4203 4.42656 24.8016 3.225C23.8109 3.81562 22.7172 4.23281 21.5516 4.46563C20.6109 3.46406 19.2703 2.84375 17.8078 2.84375C14.9703 2.84375 12.6859 5.14688 12.6859 7.97031C12.6859 8.37656 12.7203 8.76719 12.8047 9.13906C8.54375 8.93125 4.77344 6.88906 2.24062 3.77813C1.79844 4.54531 1.53906 5.42344 1.53906 6.36875C1.53906 8.14375 2.45312 9.71719 3.81562 10.6281C2.99219 10.6125 2.18437 10.3734 1.5 9.99688C1.5 10.0125 1.5 10.0328 1.5 10.0531C1.5 12.5437 3.27656 14.6125 5.60625 15.0891C5.18906 15.2031 4.73438 15.2578 4.2625 15.2578C3.93438 15.2578 3.60312 15.2391 3.29219 15.1703C3.95625 17.2 5.84063 18.6922 8.08125 18.7406C6.3375 20.1047 4.12344 20.9266 1.72656 20.9266C1.30625 20.9266 0.903125 20.9078 0.5 20.8563C2.77031 22.3203 5.46094 23.1562 8.3625 23.1562C17.7937 23.1562 22.95 15.3438 22.95 8.57187C22.95 8.34531 22.9422 8.12656 22.9312 7.90938C23.9484 7.1875 24.8031 6.28594 25.5 5.24844Z" fill="#2DA0A6"/>
</g>
<defs>
<clipPath id="clip0_2_23923">
<rect width="25" height="25" fill="white" transform="translate(0.5 0.5)"/>
</clipPath>
</defs>
</svg>
