<svg width="26" height="26" viewBox="0 0 26 26" fill="none" xmlns="http://www.w3.org/2000/svg">
<g clip-path="url(#clip0_2_23919)">
<path d="M21.2448 14.0709C20.8406 13.5605 20.9562 13.3334 21.2448 12.8771C21.25 12.8719 24.5865 8.2615 24.9302 6.69796L24.9323 6.69692C25.1031 6.12712 24.9323 5.70837 24.1062 5.70837H21.3729C20.6771 5.70837 20.3562 6.06775 20.1844 6.46983C20.1844 6.46983 18.7927 9.80108 16.824 11.9605C16.1885 12.5844 15.8948 12.7844 15.5479 12.7844C15.3771 12.7844 15.1115 12.5844 15.1115 12.0146V6.69692C15.1115 6.01358 14.9167 5.70837 14.3406 5.70837H10.0427C9.60625 5.70837 9.34687 6.02712 9.34687 6.324C9.34687 6.97192 10.3313 7.12087 10.4333 8.94379V12.899C10.4333 13.7657 10.276 13.925 9.92708 13.925C8.99792 13.925 6.74271 10.5802 5.40625 6.75212C5.13646 6.00942 4.87292 5.70942 4.17188 5.70942H1.4375C0.657292 5.70942 0.5 6.06879 0.5 6.47087C0.5 7.18129 1.42917 10.7136 4.82083 15.3802C7.08125 18.5657 10.2646 20.2917 13.1604 20.2917C14.901 20.2917 15.1135 19.9084 15.1135 19.249C15.1135 16.2053 14.9562 15.9177 15.8281 15.9177C16.2323 15.9177 16.9281 16.1178 18.5531 17.6542C20.4104 19.4761 20.7156 20.2917 21.7552 20.2917H24.4885C25.2677 20.2917 25.6625 19.9084 25.4354 19.1521C24.9156 17.5615 21.4031 14.2896 21.2448 14.0709Z" fill="#2DA0A6"/>
</g>
<defs>
<clipPath id="clip0_2_23919">
<rect width="25" height="25" fill="white" transform="translate(0.5 0.5)"/>
</clipPath>
</defs>
</svg>
