<svg width="88" height="92" viewBox="0 0 88 92" fill="none" xmlns="http://www.w3.org/2000/svg">
<path d="M4.00208 71.0374C9.94612 88.512 21.0442 95.0142 37.2962 90.5439C53.5482 86.0737 67.5431 77.3364 79.2807 64.332C91.0182 51.3276 90.9054 38.567 78.9421 26.0503C66.9788 13.5336 53.6611 6.05604 38.9891 3.61771C24.3171 1.17939 13.332 7.43775 6.03359 22.3928C-1.26478 37.3479 -1.94195 53.5627 4.00208 71.0374Z" fill="#EFF3F6"/>
<path d="M85.4604 17.1201C83.528 20.394 80.6338 22.3104 76.6838 22.8897C74.7478 23.1737 73.0747 22.9056 71.6192 22.1322C70.1545 21.3539 68.8332 20.0226 67.6823 18.0552C66.5387 16.1004 65.9945 14.1936 66 12.3221C66.0056 10.4508 66.561 8.55042 67.7156 6.60865C70.0115 2.74759 73.1637 0.931111 77.2549 1.00199C79.3426 1.03817 81.0582 1.53591 82.4483 2.44914C83.838 3.36209 84.968 4.73338 85.8154 6.6232C87.5176 10.4191 87.3734 13.8792 85.4604 17.1201Z" stroke="#D98F4E" stroke-width="2"/>
<path d="M10.2729 8.28976C9.34938 9.7891 7.97138 10.6768 6.03243 10.9493C5.10077 11.0802 4.32486 10.9538 3.66246 10.6165C2.99359 10.2759 2.3661 9.68206 1.80267 8.75906C1.24595 7.84706 0.997473 6.98605 1.00002 6.16268C1.00257 5.33942 1.25628 4.48155 1.81813 3.57601C2.92689 1.789 4.41756 0.968245 6.38627 1.00093C7.40989 1.01793 8.2185 1.25087 8.85713 1.65293C9.49326 2.05342 10.0236 2.66116 10.4305 3.53083C11.2516 5.28564 11.1726 6.82897 10.2729 8.28976Z" stroke="#D98F4E" stroke-width="2"/>
<path fill-rule="evenodd" clip-rule="evenodd" d="M45.625 25.377C51.1738 26.6646 53.2964 29.9092 55.9575 34.375H45.625V25.377ZM13.1973 34.75C14.2837 34.75 15.0723 35.2744 15.0723 36.5C15.0723 37.5337 14.2358 38.3721 13.2026 38.375H1.875C0.839355 38.375 0 39.2148 0 40.25C0 41.2856 0.839355 42.125 1.875 42.125H18.75C19.7954 42.125 20.6323 42.9639 20.6323 44C20.6323 45.0356 19.793 45.875 18.7573 45.875H1.875C0.839355 45.875 0 46.7144 0 47.75C0 48.7856 0.839355 49.625 1.875 49.625H6V55.25C6 56.2856 6.83936 57.125 7.875 57.125H11.644C12.3159 60.4346 15.2402 62.875 18.6875 62.875C22.1348 62.875 25.0591 60.4346 25.731 57.125H44.769C45.4409 60.4346 48.3652 62.875 51.8125 62.875C55.2598 62.875 58.1841 60.4346 58.856 57.125H62.125C63.1606 57.125 64 56.2856 64 55.25V44C64 38.4985 58.1973 38.1333 58.1919 38.125H43.75C42.7144 38.125 41.875 37.2856 41.875 36.25V25H7.875C6.83936 25 6 25.8394 6 26.875V31H3.75C2.71436 31 1.875 31.8394 1.875 32.875C1.875 33.9106 2.71436 34.75 3.75 34.75H13.1973ZM54.2432 53.2568C55.5854 54.5991 55.5854 56.7764 54.2432 58.1187C52.084 60.2778 48.375 58.7417 48.375 55.6875C48.375 52.6338 52.084 51.0977 54.2432 53.2568ZM21.1182 53.2568C22.4604 54.5991 22.4604 56.7764 21.1182 58.1187C18.959 60.2778 15.25 58.7417 15.25 55.6875C15.25 52.6338 18.959 51.0977 21.1182 53.2568Z" fill="#D98F4E"/>
</svg>
