<svg width="89" height="92" viewBox="0 0 89 92" fill="none" xmlns="http://www.w3.org/2000/svg">
<path d="M5.00208 70.655C10.9461 88.1297 22.0442 94.6319 38.2962 90.1616C54.5482 85.6914 68.5431 76.954 80.2807 63.9496C92.0182 50.9452 91.9054 38.1847 79.9421 25.668C67.9788 13.1512 54.6611 5.67371 39.9891 3.23539C25.3171 0.797064 14.332 7.05543 7.03359 22.0105C-0.264778 36.9655 -0.941948 53.1804 5.00208 70.655Z" fill="#EFF3F6"/>
<path d="M87.2729 8.28976C86.3494 9.7891 84.9714 10.6768 83.0324 10.9493C82.1008 11.0802 81.3249 10.9538 80.6625 10.6165C79.9936 10.2759 79.3661 9.68206 78.8027 8.75906C78.2459 7.84706 77.9975 6.98605 78 6.16268C78.0026 5.33942 78.2563 4.48155 78.8181 3.57601C79.9269 1.789 81.4176 0.968245 83.3863 1.00093C84.4099 1.01793 85.2185 1.25087 85.8571 1.65293C86.4933 2.05342 87.0236 2.66116 87.4305 3.53083C88.2516 5.28564 88.1726 6.82897 87.2729 8.28976Z" stroke="#2DA0A6" stroke-width="2"/>
<g clip-path="url(#clip0_15_3)">
<path d="M30.8 38.63C30.73 37.98 30.69 37.31 30.69 36.64C30.69 35.96 30.73 35.29 30.8 34.63H12.45L10.9 28.74C10.67 27.86 9.87 27.25 8.97 27.25H2C0.9 27.25 0 28.15 0 29.25C0 30.35 0.9 31.25 2 31.25H7.43L8.98 37.15C8.98 37.16 8.99 37.16 8.99 37.16L13.85 55.9C14.08 56.78 14.88 57.39 15.79 57.39H16.03C15.74 58.11 15.58 58.89 15.58 59.71C15.58 63.19 18.41 66.02 21.89 66.02C25.37 66.02 28.2 63.19 28.2 59.71C28.2 58.89 28.04 58.11 27.75 57.39H32.51C32.22 58.11 32.06 58.89 32.06 59.71C32.06 63.19 34.89 66.02 38.37 66.02C41.85 66.02 44.68 63.19 44.68 59.71C44.68 58.89 44.52 58.11 44.23 57.39H44.47C45.38 57.39 46.18 56.78 46.41 55.9L46.62 55.09C44.68 54.81 42.84 54.22 41.14 53.39C35.52 50.63 31.49 45.12 30.8 38.63ZM24.2 59.71C24.2 60.98 23.17 62.02 21.89 62.02C20.62 62.02 19.58 60.98 19.58 59.71C19.58 58.43 20.62 57.39 21.89 57.39C23.17 57.39 24.2 58.43 24.2 59.71ZM40.68 59.71C40.68 60.98 39.64 62.02 38.37 62.02C37.09 62.02 36.06 60.98 36.06 59.71C36.06 58.43 37.09 57.39 38.37 57.39C39.64 57.39 40.68 58.43 40.68 59.71Z" fill="#2DA0A6"/>
<path d="M49.3395 21.98C41.2595 21.98 34.6895 28.56 34.6895 36.64C34.6895 44.72 41.2595 51.29 49.3395 51.29C57.4295 51.29 63.9995 44.72 63.9995 36.64C63.9995 28.56 57.4295 21.98 49.3395 21.98ZM53.6895 38.64H51.3395V40.99C51.3395 42.09 50.4495 42.99 49.3395 42.99C48.2395 42.99 47.3395 42.09 47.3395 40.99V38.64H44.9995C43.8895 38.64 42.9995 37.74 42.9995 36.64C42.9995 35.53 43.8895 34.64 44.9995 34.64H47.3395V32.29C47.3395 31.18 48.2395 30.29 49.3395 30.29C50.4495 30.29 51.3395 31.18 51.3395 32.29V34.64H53.6895C54.7995 34.64 55.6895 35.53 55.6895 36.64C55.6895 37.74 54.7995 38.64 53.6895 38.64Z" fill="#2DA0A6"/>
</g>
<defs>
<clipPath id="clip0_15_3">
<rect width="64" height="64" fill="white" transform="translate(0 12)"/>
</clipPath>
</defs>
</svg>
