<svg width="88" height="92" viewBox="0 0 88 92" fill="none" xmlns="http://www.w3.org/2000/svg">
<path d="M4.00208 70.655C9.94612 88.1297 21.0442 94.6319 37.2962 90.1616C53.5482 85.6914 67.5431 76.954 79.2807 63.9496C91.0182 50.9452 90.9054 38.1847 78.9421 25.668C66.9788 13.1512 53.6611 5.67371 38.9891 3.23539C24.3171 0.797064 13.332 7.05543 6.03359 22.0105C-1.26478 36.9655 -1.94195 53.1804 4.00208 70.655Z" fill="#EFF3F6"/>
<path d="M85.4604 17.1201C83.528 20.394 80.6338 22.3104 76.6838 22.8897C74.7478 23.1737 73.0747 22.9056 71.6192 22.1322C70.1545 21.3539 68.8332 20.0226 67.6823 18.0552C66.5387 16.1004 65.9945 14.1936 66 12.3221C66.0056 10.4508 66.561 8.55042 67.7156 6.60865C70.0115 2.74759 73.1637 0.931111 77.2549 1.00199C79.3426 1.03817 81.0582 1.53591 82.4483 2.44914C83.838 3.36209 84.968 4.73338 85.8154 6.6232C87.5176 10.4191 87.3734 13.8792 85.4604 17.1201Z" stroke="#BF573F" stroke-width="2"/>
<path d="M86.2729 84.2898C85.3494 85.7891 83.9714 86.6768 82.0324 86.9493C81.1008 87.0802 80.3249 86.9538 79.6625 86.6165C78.9936 86.2759 78.3661 85.6821 77.8027 84.7591C77.2459 83.8471 76.9975 82.9861 77 82.1627C77.0026 81.3394 77.2563 80.4815 77.8181 79.576C78.9269 77.789 80.4176 76.9682 82.3863 77.0009C83.4099 77.0179 84.2185 77.2509 84.8571 77.6529C85.4933 78.0534 86.0236 78.6612 86.4305 79.5308C87.2516 81.2856 87.1726 82.829 86.2729 84.2898Z" stroke="#BF573F" stroke-width="2"/>
<g clip-path="url(#clip0_15_4)">
<path d="M3.35222 24.3559C11.6598 29.1389 20.6839 32.4577 30.176 34.2193C34.8399 35.0851 39.5326 35.5594 44.2228 35.6435C47.3521 34.5657 50.4099 33.2607 53.3686 31.7312C56.4438 30.1392 60.0152 30.3017 62.8908 31.9822C65.7982 27.6079 62.118 21.7617 56.8617 22.5892C52.9751 23.1979 48.9738 23.4857 45.2579 23.4537L44.4022 28.0674C44.2136 29.0833 43.2377 29.7625 42.2077 29.5743C41.1863 29.3848 40.5113 28.4024 40.7007 27.3798L41.4511 23.3307C39.0395 23.1902 36.6366 22.928 34.2539 22.549L33.4571 26.8478C33.2688 27.8626 32.2956 28.5447 31.2626 28.356C30.2412 28.1652 29.5662 27.184 29.7557 26.1614L30.5537 21.8614C28.2562 21.3746 25.9827 20.7761 23.7417 20.0672L22.9939 24.0924C22.8038 25.1181 21.8198 25.7888 20.8006 25.6006C19.778 25.4111 19.1029 24.4286 19.2937 23.406L20.1431 18.8275C16.4554 17.4473 12.8719 15.7634 9.43644 13.7847C6.51667 12.1039 2.7911 13.106 1.10875 16.0269C-0.568832 18.9417 0.437467 22.6783 3.35222 24.3559Z" fill="#BF573F"/>
<path d="M3.24025 50.3817C5.75851 49.6063 8.42734 49.8585 10.7561 51.0907C13.9482 52.7795 17.2594 54.2049 20.6535 55.363C34.1205 55.5297 47.9794 52.4863 60.7009 45.9099C63.7072 44.3532 64.8596 40.673 63.3158 37.6913C61.9278 34.9913 58.5075 33.3701 54.9618 35.1442C51.4587 36.9466 47.6824 38.504 44.3618 39.5659L45.0092 44.2134C45.1669 45.3381 44.2951 46.3553 43.1434 46.3553C42.2187 46.3553 41.4131 45.674 41.2814 44.7329L40.713 40.6525C38.3804 41.2824 36.0178 41.7943 33.6375 42.1896L34.241 46.5197C34.3853 47.5485 33.6664 48.4996 32.6375 48.6439C31.5604 48.7822 30.6525 48.0342 30.5132 47.0391L29.9097 42.7078C27.5759 42.9725 25.2295 43.1243 22.8794 43.162L23.444 47.216C23.6014 48.338 22.7326 49.3579 21.5782 49.3579C20.6535 49.3579 19.848 48.6765 19.7162 47.7355L19.0738 43.1231C15.1389 42.98 11.2091 42.5158 7.32317 41.7266C1.85138 40.6185 -2.06327 46.8197 1.17496 51.2826C1.81864 50.91 2.51 50.6063 3.24025 50.3817Z" fill="#BF573F"/>
<path d="M56.7037 61.52C52.878 62.2603 49.0072 62.6844 45.1376 62.7999L44.4474 67.4399C44.2939 68.4711 43.3332 69.1767 42.3094 69.0246C41.2805 68.8715 40.5716 67.9142 40.7246 66.8865L41.3307 62.8124C38.9153 62.7572 36.505 62.5828 34.1097 62.2892L33.466 66.613C33.3145 67.6297 32.3716 68.3506 31.3279 68.1977C30.299 68.0447 29.5901 67.0873 29.7432 66.0597L30.3856 61.7346C28.0731 61.3293 25.7795 60.8111 23.5134 60.1837L22.9111 64.234C22.7598 65.2578 21.8062 65.9701 20.7731 65.8188C19.7454 65.6657 19.0353 64.7083 19.1883 63.6794L19.8671 59.1147L19.8734 59.0733C16.1412 57.8267 12.4914 56.2662 8.99485 54.417C8.98607 54.4119 8.97728 54.4082 8.9685 54.4044C5.99641 52.8445 2.31902 53.9888 0.752482 56.9566C-0.820959 59.929 0.318342 63.6267 3.29207 65.1989C19.8577 73.965 39.5889 77.2549 59.0225 73.4952C62.3359 72.8555 64.4907 69.6532 63.8507 66.3495C63.2107 63.0454 60.021 60.8774 56.7037 61.52Z" fill="#BF573F"/>
</g>
<defs>
<clipPath id="clip0_15_4">
<rect width="64" height="64" fill="white" transform="translate(0 12)"/>
</clipPath>
</defs>
</svg>
