<svg width="32" height="32" viewBox="0 0 32 32" fill="none" xmlns="http://www.w3.org/2000/svg">
<path d="M15.6367 26.1819C22.2641 26.1819 27.6367 20.8093 27.6367 14.1819C27.6367 7.55447 22.2641 2.18188 15.6367 2.18188C9.0093 2.18188 3.63672 7.55447 3.63672 14.1819C3.63672 20.8093 9.0093 26.1819 15.6367 26.1819Z" fill="white"/>
<path d="M16.001 22.6068C20.7046 22.6068 24.5176 18.7937 24.5176 14.0901C24.5176 9.38651 20.7046 5.57349 16.001 5.57349C11.2974 5.57349 7.48438 9.38651 7.48438 14.0901C7.48438 18.7937 11.2974 22.6068 16.001 22.6068Z" fill="#2DA0A6"/>
<path d="M26.0077 4.14516C23.3347 1.47213 19.7806 0 16.0003 0C12.22 0 8.66591 1.47213 5.99288 4.14516C3.31978 6.81832 1.84766 10.3723 1.84766 14.1526C1.84766 20.8219 6.51014 26.5796 12.9873 27.9827L16.0003 32L19.0133 27.9827C25.4905 26.5795 30.1529 20.8219 30.1529 14.1526C30.1529 10.3723 28.6808 6.81832 26.0077 4.14516ZM16.0003 3.69472C21.7323 3.69472 26.3956 8.35807 26.3956 14.09C26.3956 19.822 21.7323 24.4853 16.0003 24.4853C10.2683 24.4853 5.60499 19.822 5.60499 14.09C5.60499 8.35807 10.2683 3.69472 16.0003 3.69472Z" fill="#2DA0A6"/>
</svg>
