<svg width="49" height="32" viewBox="0 0 49 32" fill="none" xmlns="http://www.w3.org/2000/svg">
<path d="M0.276985 7.85402L5.55631 2.56512L3.25853 1.15783L3.12442 0.0610316L4.19023 0L6.95432 1.9092L10.4035 1.91207L12.515 0.674022L13.2712 0.822298L13.2601 1.62719L11.8991 3.07474L12.0785 3.83512L28.0959 5.48931L44.6872 5.04438L46.4751 5.7641L47.792 7.37111L48.4696 11.13L48.5893 13.832L49 16.3551L48.8871 18.8681L48.4252 18.9588L47.7538 18.2489L47.208 15.891L47.6504 12.62L47.4965 12.5978L46.4565 17.5775L47.1649 21.8992L46.5181 30.5244L46.4565 31.4795L45.8262 31.9958L43.0394 32L42.1414 31.7392L44.6347 27.8401L43.3977 22.8887L42.7499 22.8898L40.4896 29.4731L39.3245 31.1632L38.7498 31.5029L35.6734 31.5051L35.2787 31.0308L37.9418 29.4599L39.7474 24.12L39.2948 23.2531L38.2341 23.3476L37.5682 24.9135L36.6035 23.3872L35.6688 24.92L34.8771 23.2556L32.5468 21.5355L24.2775 20.775L22.8895 22.4044L21.7198 30.3702L21.1044 31.5148L18.2868 31.5137L17.983 31.0848L19.6956 28.7958L19.9014 24.437L18.9766 24.9299L18.0025 27.8253L16.7636 31.5849L16.2081 31.9985L13.6871 32L13.4778 31.4533L14.2148 30.7983L16.592 26.337L16.044 21.6616L13.3802 19.7694L9.49994 12.8483L5.03386 10.8683L0.926861 10.4193L0.574783 10.0528L0 8.49718L0.276985 7.85402Z" fill="#A6A6A6"/>
</svg>
