<svg width="18" height="17" viewBox="0 0 18 17" fill="none" xmlns="http://www.w3.org/2000/svg">
<path d="M1.15788 7.45874H17.0348C17.5679 7.45874 18 7.89112 18 8.42392C18 8.95671 17.5679 9.38909 17.0348 9.38909H1.15788C0.624805 9.38909 0.192707 8.95704 0.192707 8.42392C0.192707 7.8908 0.624758 7.45874 1.15788 7.45874Z" fill="#121212"/>
<path d="M0.284834 7.74117L7.74308 0.282555C8.12015 -0.0941849 8.73076 -0.0941849 9.10782 0.282555C9.48489 0.659622 9.48489 1.27088 9.10782 1.64762L2.33194 8.42382L9.10782 15.2001C9.48489 15.5768 9.48489 16.1881 9.10782 16.5648C8.91929 16.7533 8.67254 16.8476 8.42545 16.8476C8.17837 16.8476 7.93162 16.7533 7.74308 16.5648L0.284834 9.10623C-0.0922346 8.72917 -0.0922346 8.11786 0.284834 7.74117Z" fill="#121212"/>
</svg>
