<svg width="18" height="18" viewBox="0 0 18 18" fill="none" xmlns="http://www.w3.org/2000/svg">
<path d="M4.99998 0H3C1.34273 0 0 1.34273 0 3V4.99998C0 6.65725 1.34273 7.99998 3 7.99998H4.99998C6.65725 7.99998 7.99998 6.65725 7.99998 4.99998V3C7.99998 1.34273 6.6573 0 4.99998 0ZM6.00002 4.99998C6.00002 5.55269 5.55273 5.99997 5.00003 5.99997H3C2.4473 5.99997 2.00002 5.55269 2.00002 4.99998V3C2.00002 2.4473 2.4473 2.00002 3 2.00002H4.99998C5.55269 2.00002 5.99997 2.4473 5.99997 3L6.00002 4.99998Z" fill="white"/>
<path d="M15 0H13C11.3427 0 10 1.34273 10 3V4.99998C10 6.65725 11.3427 7.99998 13 7.99998H15C16.6573 7.99998 18 6.65725 18 4.99998V3C18 1.34273 16.6573 0 15 0ZM16 4.99998C16 5.55269 15.5527 5.99997 15 5.99997H13C12.4473 5.99997 12 5.55269 12 4.99998V3C12 2.4473 12.4473 2.00002 13 2.00002H15C15.5527 2.00002 16 2.4473 16 3V4.99998Z" fill="white"/>
<path d="M4.99998 10H3C1.34273 10 0 11.3427 0 13V15C0 16.6573 1.34273 18 3 18H4.99998C6.65725 18 7.99998 16.6573 7.99998 15V13C7.99998 11.3427 6.6573 10 4.99998 10ZM6.00002 15C6.00002 15.5527 5.55273 16 5.00003 16H3C2.4473 16 2.00002 15.5527 2.00002 15V13C2.00002 12.4473 2.4473 12 3 12H4.99998C5.55269 12 5.99997 12.4473 5.99997 13L6.00002 15Z" fill="white"/>
<path d="M15 10H13C11.3427 10 10 11.3427 10 13V15C10 16.6573 11.3427 18 13 18H15C16.6572 18 18 16.6573 18 15V13C18 11.3427 16.6573 10 15 10ZM16 15C16 15.5527 15.5527 16 15 16H13C12.4473 16 12 15.5527 12 15V13C12 12.4473 12.4473 12 13 12H15C15.5527 12 16 12.4473 16 13L16 15Z" fill="white"/>
</svg>
