<svg width="11" height="8" viewBox="0 0 11 8" fill="none" xmlns="http://www.w3.org/2000/svg">
<path d="M1.69471 3.28071L3.98771 5.57371L9.28071 0.280712C9.46931 0.0985539 9.72189 -0.0022406 9.98409 3.78019e-05C10.2463 0.0023162 10.4971 0.107485 10.6825 0.292893C10.8679 0.478301 10.9731 0.729114 10.9754 0.991311C10.9777 1.25351 10.8769 1.50611 10.6947 1.69471L4.69471 7.69471C4.50718 7.88218 4.25287 7.9875 3.98771 7.9875C3.72255 7.9875 3.46824 7.88218 3.28071 7.69471L0.280712 4.69471C0.0985538 4.50611 -0.00224118 4.25351 3.78215e-05 3.99131C0.00231582 3.72911 0.107485 3.4783 0.292894 3.29289C0.478302 3.10748 0.729113 3.00232 0.991313 3.00004C1.2535 2.99776 1.50611 3.09855 1.69471 3.28071Z" fill="#2DA0A6"/>
</svg>
