<svg width="223" height="233" viewBox="0 0 223 233" fill="none" xmlns="http://www.w3.org/2000/svg">
<path d="M141.554 196.082C116.944 218.82 93.3629 217.994 70.8117 193.605C48.2605 169.216 37.0597 143.167 37.2091 115.457C37.3585 87.7473 49.9715 65.3913 75.048 48.389C100.125 31.3868 129.143 29.6787 162.104 43.2649C195.065 56.851 206.032 80.0327 195.007 112.81C183.982 145.587 166.164 173.345 141.554 196.082Z" fill="#F2F4F4"/>
<rect x="90" y="101.19" width="94" height="34.6905" fill="white"/>
<path d="M112.215 107.091C109.179 107.091 106.707 109.647 106.707 112.788C106.707 115.18 108.167 117.333 110.343 118.149L121.397 122.285L117.398 110.849C116.609 108.602 114.528 107.091 112.215 107.091Z" fill="#2DA0A6"/>
<path d="M145.26 112.788C145.26 109.647 142.788 107.091 139.752 107.091C137.439 107.091 135.357 108.602 134.569 110.852L130.57 122.285L141.626 118.149C143.799 117.333 145.26 115.18 145.26 112.788Z" fill="#2DA0A6"/>
<path d="M128.738 110.782L129.392 108.913C130.965 104.415 135.131 101.394 139.754 101.394C145.829 101.394 150.769 106.504 150.769 112.788C150.769 117.57 147.849 121.879 143.503 123.506L141.696 124.182H184V98C184 93.5817 180.418 90 176 90H128.738V110.782Z" fill="#2DA0A6"/>
<path d="M108.469 123.506C104.12 121.879 101.199 117.57 101.199 112.788C101.199 106.504 106.14 101.394 112.215 101.394C116.838 101.394 121.004 104.415 122.577 108.91L123.231 110.779V90H98C93.5817 90 90 93.5817 90 98V124.182H110.275L108.469 123.506Z" fill="#2DA0A6"/>
<path d="M141.786 134.504C143.04 135.368 143.38 137.071 142.555 138.35C141.694 139.688 139.896 140.047 138.587 139.144L128.738 132.354V152.667H176C180.418 152.667 184 149.085 184 144.667V129.879H135.08L141.786 134.504Z" fill="#2DA0A6"/>
<path d="M123.231 132.354L113.382 139.144C112.072 140.047 110.275 139.688 109.413 138.351C108.589 137.071 108.929 135.368 110.182 134.503L116.888 129.879H90V144.667C90 149.085 93.5817 152.667 98 152.667H123.231V132.354Z" fill="#2DA0A6"/>
<path d="M59.4604 170.12C57.528 173.394 54.6338 175.31 50.6838 175.89C48.7478 176.174 47.0747 175.906 45.6192 175.132C44.1545 174.354 42.8332 173.023 41.6823 171.055C40.5387 169.1 39.9945 167.194 40 165.322C40.0056 163.451 40.561 161.55 41.7156 159.609C44.0115 155.748 47.1637 153.931 51.2549 154.002C53.3426 154.038 55.0582 154.536 56.4483 155.449C57.838 156.362 58.968 157.733 59.8154 159.623C61.5176 163.419 61.3734 166.879 59.4604 170.12ZM182.273 58.2898C181.349 59.7891 179.971 60.6768 178.032 60.9493C177.101 61.0802 176.325 60.9538 175.662 60.6165C174.994 60.2759 174.366 59.6821 173.803 58.7591C173.246 57.8471 172.997 56.9861 173 56.1627C173.003 55.3394 173.256 54.4815 173.818 53.576C174.927 51.789 176.418 50.9682 178.386 51.0009C179.41 51.0179 180.219 51.2509 180.857 51.6529C181.493 52.0534 182.024 52.6612 182.431 53.5308C183.252 55.2856 183.173 56.829 182.273 58.2898Z" stroke="#2DA0A6" stroke-width="2"/>
</svg>
