<svg width="182" height="182" viewBox="0 0 182 182" fill="none" xmlns="http://www.w3.org/2000/svg">
<path d="M173.723 139.223C161.43 175.036 138.477 188.362 104.865 179.201C71.2525 170.039 42.3087 152.133 18.0332 125.481C-6.24226 98.8292 -6.00884 72.6772 18.7335 47.025C43.4758 21.3727 71.0191 6.048 101.363 1.05081C131.708 -3.94638 154.427 8.87975 169.521 39.5292C184.616 70.1786 186.016 103.41 173.723 139.223Z" fill="#F2F4F4"/>
<path d="M65.8086 119.551V125.432C65.8086 131.259 70.5494 136 76.3766 136H113.623C119.451 136 124.191 131.259 124.191 125.432V119.551H65.8086ZM99.087 128.011H90.9128C89.3769 128.011 88.1318 126.766 88.1318 125.23C88.1318 123.694 89.3769 122.449 90.9128 122.449H99.087C100.623 122.449 101.868 123.694 101.868 125.23C101.868 126.766 100.623 128.011 99.087 128.011Z" fill="#2DA0A6"/>
<path d="M124.191 60.3513H65.8086V113.989H124.191L124.191 60.3513Z" fill="#2DA0A6"/>
<path d="M113.623 42H76.3766C70.5494 42 65.8086 46.7408 65.8086 52.568V54.7891H124.191V52.568C124.191 46.7408 119.45 42 113.623 42Z" fill="#2DA0A6"/>
<path d="M97.8269 81.3333H93.6667V86.6667H97.8269C99.2089 86.6667 100.333 85.4704 100.333 84C100.333 82.5297 99.209 81.3333 97.8269 81.3333Z" fill="#F2F4F4"/>
<path d="M109.139 73.861C101.325 66.0469 88.6763 66.0457 80.8611 73.861C73.0469 81.6751 73.0457 94.3237 80.8611 102.139C88.6752 109.953 101.324 109.954 109.139 102.139C116.953 94.3249 116.954 81.6763 109.139 73.861ZM97.5027 89.6424H93.3054V91.363H96.6684C97.5755 91.363 98.3108 92.0983 98.3108 93.0054C98.3108 93.9124 97.5755 94.6478 96.6684 94.6478H93.3054V96.3423C93.3054 97.2494 92.5701 97.9847 91.663 97.9847C90.7559 97.9847 90.0206 97.2494 90.0206 96.3423V94.6478H88.3261C87.419 94.6478 86.6837 93.9124 86.6837 93.0054C86.6837 92.0983 87.419 91.363 88.3261 91.363H90.0206V89.6424H88.3261C87.419 89.6424 86.6837 88.907 86.6837 88C86.6837 87.0929 87.419 86.3576 88.3261 86.3576H90.0206V79.6576C90.0206 78.7505 90.7559 78.0152 91.663 78.0152H97.5027C100.708 78.0152 103.316 80.6232 103.316 83.8287C103.316 87.0345 100.708 89.6424 97.5027 89.6424Z" fill="#F2F4F4"/>
<path d="M163.598 42.4458C159.955 42.0078 157.07 40.1548 154.903 36.7886C153.84 35.1377 153.37 33.5029 153.433 31.8654C153.497 30.2206 154.101 28.4899 155.326 26.6621C156.544 24.8449 157.966 23.5956 159.58 22.8566C161.194 22.1177 163.066 21.8589 165.232 22.1265C169.536 22.6582 172.448 24.7852 174.109 28.5474C174.955 30.4645 175.242 32.2281 175.029 33.8596C174.817 35.4883 174.099 37.059 172.817 38.5788C170.242 41.6315 167.197 42.8784 163.598 42.4458Z" stroke="#2DA0A6" stroke-width="2"/>
</svg>
