<svg width="24" height="24" viewBox="0 0 24 24" fill="none" xmlns="http://www.w3.org/2000/svg">
<path fill-rule="evenodd" clip-rule="evenodd" d="M22.7905 16.6129L22.7073 16.7071L18.7072 20.7071C18.6802 20.7341 18.6517 20.7596 18.6217 20.7834L18.5004 20.8661L18.4272 20.9045L18.3401 20.9407L18.2337 20.9726L18.1167 20.9933L18.0331 20.9995L17.9411 20.9983L17.8253 20.9847L17.6879 20.9503L17.5769 20.9063L17.4794 20.854L17.3833 20.7872L17.293 20.7071L13.2929 16.7071C12.9024 16.3166 12.9024 15.6834 13.2929 15.2929C13.6534 14.9324 14.2206 14.9047 14.6129 15.2097L14.7071 15.2929L17 17.585L17.0001 4C17.0001 3.48716 17.3861 3.06449 17.8834 3.00673L18.0001 3C18.5524 3 19.0001 3.44772 19.0001 4L19 17.585L21.293 15.2929C21.6535 14.9324 22.2208 14.9047 22.6131 15.2097L22.7073 15.2929C23.0378 15.6233 23.0886 16.1275 22.8598 16.5114L22.7905 16.6129ZM1.2929 7.29275L5.29297 3.29275L5.40492 3.19617L5.5158 3.12473L5.62902 3.07096L5.73424 3.03557L5.8253 3.01515L5.94107 3.00159H6.05925L6.17477 3.01513L6.31286 3.04972L6.36681 3.06924L6.45397 3.10852L6.52079 3.14592L6.60181 3.20098L6.66558 3.2534L6.70724 3.29275L10.7073 7.29275L10.7905 7.38695C11.0701 7.74655 11.0701 8.25315 10.7905 8.61275L10.7073 8.70696L10.6131 8.79015C10.2535 9.06976 9.74688 9.06976 9.38727 8.79015L9.29306 8.70696L7 6.41485L7.00013 19.9999C7.00013 20.5127 6.61409 20.9354 6.11675 20.9931L6.00013 20.9999L5.88346 20.9931C5.42438 20.9398 5.06013 20.5756 5.00681 20.1165L5.00008 19.9999L5 6.41485L2.70715 8.70696L2.61295 8.79015C2.22064 9.09517 1.6534 9.06744 1.2929 8.70696C0.932409 8.34648 0.904678 7.77924 1.20971 7.38695L1.2929 7.29275Z" fill="#121212"/>
</svg>
