<svg width="23" height="23" viewBox="0 0 23 23" fill="none" xmlns="http://www.w3.org/2000/svg">
<path d="M10.5691 0.56543C4.74145 0.56543 0 5.18074 0 10.8533C0 16.5263 4.74145 21.1413 10.5691 21.1413C16.3971 21.1413 21.1382 16.5263 21.1382 10.8533C21.1382 5.18074 16.3971 0.56543 10.5691 0.56543ZM10.5691 19.242C5.81723 19.242 1.95122 15.4788 1.95122 10.8534C1.95122 6.22795 5.81723 2.46474 10.5691 2.46474C15.321 2.46474 19.187 6.2279 19.187 10.8533C19.187 15.4788 15.321 19.242 10.5691 19.242Z" fill="#2DA0A6"/>
<path d="M22.716 21.3326L18.1224 16.8613C17.7413 16.4903 17.124 16.4903 16.7429 16.8613C16.3617 17.2319 16.3617 17.8334 16.7429 18.2041L21.3364 22.6754C21.527 22.8609 21.7764 22.9536 22.0262 22.9536C22.2756 22.9536 22.5254 22.8609 22.716 22.6754C23.0971 22.3047 23.0971 21.7032 22.716 21.3326Z" fill="#2DA0A6"/>
</svg>
