<svg width="24" height="24" viewBox="0 0 24 24" fill="none" xmlns="http://www.w3.org/2000/svg">
<g clip-path="url(#clip0_1_718)">
<path d="M11.9989 13.5181C4.7878 13.5181 0.816406 16.9294 0.816406 23.1239C0.816406 23.6077 1.20852 23.9998 1.69231 23.9998H22.3055C22.7892 23.9998 23.1814 23.6077 23.1814 23.1239C23.1814 16.9298 19.21 13.5181 11.9989 13.5181ZM2.60009 22.248C2.94463 17.6165 6.10227 15.2699 11.9989 15.2699C17.8955 15.2699 21.0532 17.6165 21.398 22.248H2.60009Z" fill="#2DA0A6"/>
<path d="M12.0016 0C8.68919 0 6.19141 2.54803 6.19141 5.92673C6.19141 9.40439 8.79785 12.2333 12.0016 12.2333C15.2054 12.2333 17.8118 9.40439 17.8118 5.92702C17.8118 2.54803 15.314 0 12.0016 0ZM12.0016 10.4818C9.76366 10.4818 7.94322 8.43853 7.94322 5.92702C7.94322 3.50775 9.65008 1.75181 12.0016 1.75181C14.3155 1.75181 16.06 3.54656 16.06 5.92702C16.06 8.43853 14.2396 10.4818 12.0016 10.4818Z" fill="#2DA0A6"/>
</g>
<defs>
<clipPath id="clip0_1_718">
<rect width="24" height="24" fill="white"/>
</clipPath>
</defs>
</svg>
