<svg width="17" height="16" viewBox="0 0 17 16" fill="none" xmlns="http://www.w3.org/2000/svg">
<path d="M9.08366 2.66303L9.08364 2.66301L8.79865 2.96416L8.07232 3.73167L7.346 2.96416L7.061 2.66301L7.05471 2.65636L7.05474 2.65633C5.77141 1.27511 3.61135 1.19574 2.2301 2.47898L9.08366 2.66303ZM9.08366 2.66303L9.089 2.6573M9.08366 2.66303L9.089 2.6573M9.089 2.6573C9.73603 1.96277 10.6421 1.56773 11.5913 1.56626M9.089 2.6573L11.5913 1.56626M11.5913 1.56626C12.5391 1.56809 13.4437 1.96296 14.0895 2.65675C15.4922 4.17038 15.4932 6.50858 14.0924 8.02337L8.07228 14.3743L2.04987 8.02329C0.648968 6.50823 0.650043 4.16975 2.0531 2.65595C2.10974 2.59501 2.16872 2.53604 2.22996 2.47912L11.5913 1.56626Z" stroke="#D0D0D0" stroke-opacity="0.8" stroke-width="2"/>
</svg>
