<svg width="199" height="16" viewBox="0 0 199 16" fill="none" xmlns="http://www.w3.org/2000/svg">
<path d="M198.354 8.35355C198.549 8.15829 198.549 7.84171 198.354 7.64645L195.172 4.46447C194.976 4.2692 194.66 4.2692 194.464 4.46447C194.269 4.65973 194.269 4.97631 194.464 5.17157L197.293 8L194.464 10.8284C194.269 11.0237 194.269 11.3403 194.464 11.5355C194.66 11.7308 194.976 11.7308 195.172 11.5355L198.354 8.35355ZM0.99 8.5C1.26614 8.5 1.49 8.27614 1.49 8C1.49 7.72386 1.26614 7.5 0.99 7.5V8.5ZM6.93 7.5C6.65386 7.5 6.43 7.72386 6.43 8C6.43 8.27614 6.65386 8.5 6.93 8.5V7.5ZM8.91 8.5C9.18614 8.5 9.41 8.27614 9.41 8C9.41 7.72386 9.18614 7.5 8.91 7.5V8.5ZM14.85 7.5C14.5739 7.5 14.35 7.72386 14.35 8C14.35 8.27614 14.5739 8.5 14.85 8.5V7.5ZM16.83 8.5C17.1061 8.5 17.33 8.27614 17.33 8C17.33 7.72386 17.1061 7.5 16.83 7.5V8.5ZM22.77 7.5C22.4939 7.5 22.27 7.72386 22.27 8C22.27 8.27614 22.4939 8.5 22.77 8.5V7.5ZM24.75 8.5C25.0261 8.5 25.25 8.27614 25.25 8C25.25 7.72386 25.0261 7.5 24.75 7.5V8.5ZM30.69 7.5C30.4139 7.5 30.19 7.72386 30.19 8C30.19 8.27614 30.4139 8.5 30.69 8.5V7.5ZM32.67 8.5C32.9461 8.5 33.17 8.27614 33.17 8C33.17 7.72386 32.9461 7.5 32.67 7.5V8.5ZM38.61 7.5C38.3339 7.5 38.11 7.72386 38.11 8C38.11 8.27614 38.3339 8.5 38.61 8.5V7.5ZM40.59 8.5C40.8661 8.5 41.09 8.27614 41.09 8C41.09 7.72386 40.8661 7.5 40.59 7.5V8.5ZM46.53 7.5C46.2539 7.5 46.03 7.72386 46.03 8C46.03 8.27614 46.2539 8.5 46.53 8.5V7.5ZM48.51 8.5C48.7861 8.5 49.01 8.27614 49.01 8C49.01 7.72386 48.7861 7.5 48.51 7.5V8.5ZM54.45 7.5C54.1739 7.5 53.95 7.72386 53.95 8C53.95 8.27614 54.1739 8.5 54.45 8.5V7.5ZM56.43 8.5C56.7061 8.5 56.93 8.27614 56.93 8C56.93 7.72386 56.7061 7.5 56.43 7.5V8.5ZM62.37 7.5C62.0939 7.5 61.87 7.72386 61.87 8C61.87 8.27614 62.0939 8.5 62.37 8.5V7.5ZM64.35 8.5C64.6261 8.5 64.85 8.27614 64.85 8C64.85 7.72386 64.6261 7.5 64.35 7.5V8.5ZM70.29 7.5C70.0139 7.5 69.79 7.72386 69.79 8C69.79 8.27614 70.0139 8.5 70.29 8.5V7.5ZM72.27 8.5C72.5461 8.5 72.77 8.27614 72.77 8C72.77 7.72386 72.5461 7.5 72.27 7.5V8.5ZM78.21 7.5C77.9339 7.5 77.71 7.72386 77.71 8C77.71 8.27614 77.9339 8.5 78.21 8.5V7.5ZM80.19 8.5C80.4662 8.5 80.69 8.27614 80.69 8C80.69 7.72386 80.4662 7.5 80.19 7.5V8.5ZM86.13 7.5C85.8539 7.5 85.63 7.72386 85.63 8C85.63 8.27614 85.8539 8.5 86.13 8.5V7.5ZM88.11 8.5C88.3862 8.5 88.61 8.27614 88.61 8C88.61 7.72386 88.3862 7.5 88.11 7.5V8.5ZM94.05 7.5C93.7739 7.5 93.55 7.72386 93.55 8C93.55 8.27614 93.7739 8.5 94.05 8.5V7.5ZM96.03 8.5C96.3062 8.5 96.53 8.27614 96.53 8C96.53 7.72386 96.3062 7.5 96.03 7.5V8.5ZM101.97 7.5C101.694 7.5 101.47 7.72386 101.47 8C101.47 8.27614 101.694 8.5 101.97 8.5V7.5ZM103.95 8.5C104.226 8.5 104.45 8.27614 104.45 8C104.45 7.72386 104.226 7.5 103.95 7.5V8.5ZM109.89 7.5C109.614 7.5 109.39 7.72386 109.39 8C109.39 8.27614 109.614 8.5 109.89 8.5V7.5ZM111.87 8.5C112.146 8.5 112.37 8.27614 112.37 8C112.37 7.72386 112.146 7.5 111.87 7.5V8.5ZM117.81 7.5C117.534 7.5 117.31 7.72386 117.31 8C117.31 8.27614 117.534 8.5 117.81 8.5V7.5ZM119.79 8.5C120.066 8.5 120.29 8.27614 120.29 8C120.29 7.72386 120.066 7.5 119.79 7.5V8.5ZM125.73 7.5C125.454 7.5 125.23 7.72386 125.23 8C125.23 8.27614 125.454 8.5 125.73 8.5V7.5ZM127.71 8.5C127.986 8.5 128.21 8.27614 128.21 8C128.21 7.72386 127.986 7.5 127.71 7.5V8.5ZM133.65 7.5C133.374 7.5 133.15 7.72386 133.15 8C133.15 8.27614 133.374 8.5 133.65 8.5V7.5ZM135.63 8.5C135.906 8.5 136.13 8.27614 136.13 8C136.13 7.72386 135.906 7.5 135.63 7.5V8.5ZM141.57 7.5C141.294 7.5 141.07 7.72386 141.07 8C141.07 8.27614 141.294 8.5 141.57 8.5V7.5ZM143.55 8.5C143.826 8.5 144.05 8.27614 144.05 8C144.05 7.72386 143.826 7.5 143.55 7.5V8.5ZM149.49 7.5C149.214 7.5 148.99 7.72386 148.99 8C148.99 8.27614 149.214 8.5 149.49 8.5V7.5ZM151.47 8.5C151.746 8.5 151.97 8.27614 151.97 8C151.97 7.72386 151.746 7.5 151.47 7.5V8.5ZM157.41 7.5C157.134 7.5 156.91 7.72386 156.91 8C156.91 8.27614 157.134 8.5 157.41 8.5V7.5ZM159.39 8.5C159.666 8.5 159.89 8.27614 159.89 8C159.89 7.72386 159.666 7.5 159.39 7.5V8.5ZM165.33 7.5C165.054 7.5 164.83 7.72386 164.83 8C164.83 8.27614 165.054 8.5 165.33 8.5V7.5ZM167.31 8.5C167.586 8.5 167.81 8.27614 167.81 8C167.81 7.72386 167.586 7.5 167.31 7.5V8.5ZM173.25 7.5C172.974 7.5 172.75 7.72386 172.75 8C172.75 8.27614 172.974 8.5 173.25 8.5V7.5ZM175.23 8.5C175.506 8.5 175.73 8.27614 175.73 8C175.73 7.72386 175.506 7.5 175.23 7.5V8.5ZM181.17 7.5C180.894 7.5 180.67 7.72386 180.67 8C180.67 8.27614 180.894 8.5 181.17 8.5V7.5ZM183.15 8.5C183.426 8.5 183.65 8.27614 183.65 8C183.65 7.72386 183.426 7.5 183.15 7.5V8.5ZM189.09 7.5C188.814 7.5 188.59 7.72386 188.59 8C188.59 8.27614 188.814 8.5 189.09 8.5V7.5ZM191.07 8.5C191.346 8.5 191.57 8.27614 191.57 8C191.57 7.72386 191.346 7.5 191.07 7.5V8.5ZM197.01 7.5C196.734 7.5 196.51 7.72386 196.51 8C196.51 8.27614 196.734 8.5 197.01 8.5V7.5ZM0 8.5H0.99V7.5H0V8.5ZM6.93 8.5H8.91V7.5H6.93V8.5ZM14.85 8.5H16.83V7.5H14.85V8.5ZM22.77 8.5H24.75V7.5H22.77V8.5ZM30.69 8.5H32.67V7.5H30.69V8.5ZM38.61 8.5H40.59V7.5H38.61V8.5ZM46.53 8.5H48.51V7.5H46.53V8.5ZM54.45 8.5H56.43V7.5H54.45V8.5ZM62.37 8.5H64.35V7.5H62.37V8.5ZM70.29 8.5H72.27V7.5H70.29V8.5ZM78.21 8.5H80.19V7.5H78.21V8.5ZM86.13 8.5H88.11V7.5H86.13V8.5ZM94.05 8.5H96.03V7.5H94.05V8.5ZM101.97 8.5H103.95V7.5H101.97V8.5ZM109.89 8.5H111.87V7.5H109.89V8.5ZM117.81 8.5H119.79V7.5H117.81V8.5ZM125.73 8.5H127.71V7.5H125.73V8.5ZM133.65 8.5H135.63V7.5H133.65V8.5ZM141.57 8.5H143.55V7.5H141.57V8.5ZM149.49 8.5H151.47V7.5H149.49V8.5ZM157.41 8.5H159.39V7.5H157.41V8.5ZM165.33 8.5H167.31V7.5H165.33V8.5ZM173.25 8.5H175.23V7.5H173.25V8.5ZM181.17 8.5H183.15V7.5H181.17V8.5ZM189.09 8.5H191.07V7.5H189.09V8.5ZM197.01 8.5H198V7.5H197.01V8.5ZM198.707 8.70711C199.098 8.31658 199.098 7.68342 198.707 7.29289L192.343 0.928932C191.953 0.538408 191.319 0.538408 190.929 0.928932C190.538 1.31946 190.538 1.95262 190.929 2.34315L196.586 8L190.929 13.6569C190.538 14.0474 190.538 14.6805 190.929 15.0711C191.319 15.4616 191.953 15.4616 192.343 15.0711L198.707 8.70711ZM0.99 9C1.54228 9 1.99 8.55228 1.99 8C1.99 7.44772 1.54228 7 0.99 7V9ZM6.93 7C6.37772 7 5.93 7.44772 5.93 8C5.93 8.55228 6.37772 9 6.93 9V7ZM8.91 9C9.46228 9 9.91 8.55228 9.91 8C9.91 7.44772 9.46228 7 8.91 7V9ZM14.85 7C14.2977 7 13.85 7.44772 13.85 8C13.85 8.55228 14.2977 9 14.85 9V7ZM16.83 9C17.3823 9 17.83 8.55228 17.83 8C17.83 7.44772 17.3823 7 16.83 7V9ZM22.77 7C22.2177 7 21.77 7.44772 21.77 8C21.77 8.55228 22.2177 9 22.77 9V7ZM24.75 9C25.3023 9 25.75 8.55228 25.75 8C25.75 7.44772 25.3023 7 24.75 7V9ZM30.69 7C30.1377 7 29.69 7.44772 29.69 8C29.69 8.55228 30.1377 9 30.69 9V7ZM32.67 9C33.2223 9 33.67 8.55228 33.67 8C33.67 7.44772 33.2223 7 32.67 7V9ZM38.61 7C38.0577 7 37.61 7.44772 37.61 8C37.61 8.55228 38.0577 9 38.61 9V7ZM40.59 9C41.1423 9 41.59 8.55228 41.59 8C41.59 7.44772 41.1423 7 40.59 7V9ZM46.53 7C45.9777 7 45.53 7.44772 45.53 8C45.53 8.55228 45.9777 9 46.53 9V7ZM48.51 9C49.0623 9 49.51 8.55228 49.51 8C49.51 7.44772 49.0623 7 48.51 7V9ZM54.45 7C53.8977 7 53.45 7.44772 53.45 8C53.45 8.55228 53.8977 9 54.45 9V7ZM56.43 9C56.9823 9 57.43 8.55228 57.43 8C57.43 7.44772 56.9823 7 56.43 7V9ZM62.37 7C61.8177 7 61.37 7.44772 61.37 8C61.37 8.55228 61.8177 9 62.37 9V7ZM64.35 9C64.9023 9 65.35 8.55228 65.35 8C65.35 7.44772 64.9023 7 64.35 7V9ZM70.29 7C69.7377 7 69.29 7.44772 69.29 8C69.29 8.55228 69.7377 9 70.29 9V7ZM72.27 9C72.8223 9 73.27 8.55228 73.27 8C73.27 7.44772 72.8223 7 72.27 7V9ZM78.21 7C77.6577 7 77.21 7.44772 77.21 8C77.21 8.55228 77.6577 9 78.21 9V7ZM80.19 9C80.7423 9 81.19 8.55228 81.19 8C81.19 7.44772 80.7423 7 80.19 7V9ZM86.13 7C85.5777 7 85.13 7.44772 85.13 8C85.13 8.55228 85.5777 9 86.13 9V7ZM88.11 9C88.6623 9 89.11 8.55228 89.11 8C89.11 7.44772 88.6623 7 88.11 7V9ZM94.05 7C93.4977 7 93.05 7.44772 93.05 8C93.05 8.55228 93.4977 9 94.05 9V7ZM96.03 9C96.5823 9 97.03 8.55228 97.03 8C97.03 7.44772 96.5823 7 96.03 7V9ZM101.97 7C101.418 7 100.97 7.44772 100.97 8C100.97 8.55228 101.418 9 101.97 9V7ZM103.95 9C104.502 9 104.95 8.55228 104.95 8C104.95 7.44772 104.502 7 103.95 7V9ZM109.89 7C109.338 7 108.89 7.44772 108.89 8C108.89 8.55228 109.338 9 109.89 9V7ZM111.87 9C112.422 9 112.87 8.55228 112.87 8C112.87 7.44772 112.422 7 111.87 7V9ZM117.81 7C117.258 7 116.81 7.44772 116.81 8C116.81 8.55228 117.258 9 117.81 9V7ZM119.79 9C120.342 9 120.79 8.55228 120.79 8C120.79 7.44772 120.342 7 119.79 7V9ZM125.73 7C125.178 7 124.73 7.44772 124.73 8C124.73 8.55228 125.178 9 125.73 9V7ZM127.71 9C128.262 9 128.71 8.55228 128.71 8C128.71 7.44772 128.262 7 127.71 7V9ZM133.65 7C133.098 7 132.65 7.44772 132.65 8C132.65 8.55228 133.098 9 133.65 9V7ZM135.63 9C136.182 9 136.63 8.55228 136.63 8C136.63 7.44772 136.182 7 135.63 7V9ZM141.57 7C141.018 7 140.57 7.44772 140.57 8C140.57 8.55228 141.018 9 141.57 9V7ZM143.55 9C144.102 9 144.55 8.55228 144.55 8C144.55 7.44772 144.102 7 143.55 7V9ZM149.49 7C148.938 7 148.49 7.44772 148.49 8C148.49 8.55228 148.938 9 149.49 9V7ZM151.47 9C152.022 9 152.47 8.55228 152.47 8C152.47 7.44772 152.022 7 151.47 7V9ZM157.41 7C156.858 7 156.41 7.44772 156.41 8C156.41 8.55228 156.858 9 157.41 9V7ZM159.39 9C159.942 9 160.39 8.55228 160.39 8C160.39 7.44772 159.942 7 159.39 7V9ZM165.33 7C164.778 7 164.33 7.44772 164.33 8C164.33 8.55228 164.778 9 165.33 9V7ZM167.31 9C167.862 9 168.31 8.55228 168.31 8C168.31 7.44772 167.862 7 167.31 7V9ZM173.25 7C172.698 7 172.25 7.44772 172.25 8C172.25 8.55228 172.698 9 173.25 9V7ZM175.23 9C175.782 9 176.23 8.55228 176.23 8C176.23 7.44772 175.782 7 175.23 7V9ZM181.17 7C180.618 7 180.17 7.44772 180.17 8C180.17 8.55228 180.618 9 181.17 9V7ZM183.15 9C183.702 9 184.15 8.55228 184.15 8C184.15 7.44772 183.702 7 183.15 7V9ZM189.09 7C188.538 7 188.09 7.44772 188.09 8C188.09 8.55228 188.538 9 189.09 9V7ZM191.07 9C191.622 9 192.07 8.55228 192.07 8C192.07 7.44772 191.622 7 191.07 7V9ZM197.01 7C196.458 7 196.01 7.44772 196.01 8C196.01 8.55228 196.458 9 197.01 9V7ZM0 9H0.99V7H0V9ZM6.93 9H8.91V7H6.93V9ZM14.85 9H16.83V7H14.85V9ZM22.77 9H24.75V7H22.77V9ZM30.69 9H32.67V7H30.69V9ZM38.61 9H40.59V7H38.61V9ZM46.53 9H48.51V7H46.53V9ZM54.45 9H56.43V7H54.45V9ZM62.37 9H64.35V7H62.37V9ZM70.29 9H72.27V7H70.29V9ZM78.21 9H80.19V7H78.21V9ZM86.13 9H88.11V7H86.13V9ZM94.05 9H96.03V7H94.05V9ZM101.97 9H103.95V7H101.97V9ZM109.89 9H111.87V7H109.89V9ZM117.81 9H119.79V7H117.81V9ZM125.73 9H127.71V7H125.73V9ZM133.65 9H135.63V7H133.65V9ZM141.57 9H143.55V7H141.57V9ZM149.49 9H151.47V7H149.49V9ZM157.41 9H159.39V7H157.41V9ZM165.33 9H167.31V7H165.33V9ZM173.25 9H175.23V7H173.25V9ZM181.17 9H183.15V7H181.17V9ZM189.09 9H191.07V7H189.09V9ZM197.01 9H198V7H197.01V9Z" fill="#2DA0A6"/>
</svg>
