<svg width="26" height="24" viewBox="0 0 26 24" fill="none" xmlns="http://www.w3.org/2000/svg">
<path d="M14.0156 17.4375C14.0156 17.9553 13.5609 18.375 13 18.375C12.4391 18.375 11.9844 17.9553 11.9844 17.4375C11.9844 16.9198 12.4391 16.5 13 16.5C13.5609 16.5 14.0156 16.9198 14.0156 17.4375ZM13 5.625C12.4391 5.625 11.9844 6.04471 11.9844 6.56249V13.6874C11.9844 14.2052 12.4391 14.6249 13 14.6249C13.5609 14.6249 14.0156 14.2052 14.0156 13.6874V6.56249C14.0156 6.04471 13.5609 5.625 13 5.625ZM25.9446 22.7601C26.2144 23.4949 25.4524 24.1977 24.6568 23.9489L19.5668 22.3563C17.5795 23.4321 15.3195 23.9985 12.9992 23.9985C5.814 23.9985 0 18.6309 0 11.9992C0 5.36671 5.81491 0 12.9992 0C20.1844 0 25.9984 5.36765 25.9984 11.9992C25.9984 14.1411 25.3848 16.2272 24.2193 18.0617L25.9446 22.7601ZM22.249 17.4422C23.3731 15.8181 23.9672 13.936 23.9672 11.9992C23.9672 6.40303 19.0609 1.87486 12.9992 1.87486C6.93662 1.87486 2.03115 6.40378 2.03115 11.9992C2.03115 17.5955 6.93749 22.1236 12.9992 22.1236C15.0973 22.1236 17.1363 21.5751 18.8957 20.5375C19.1555 20.3843 19.4766 20.3483 19.7685 20.4396L23.3606 21.5637L22.143 18.2479C22.044 17.9784 22.083 17.682 22.249 17.4422Z" fill="#2DA0A6"/>
</svg>
