<svg width="18" height="19" viewBox="0 0 18 19" fill="none" xmlns="http://www.w3.org/2000/svg">
<path d="M1.1578 8.45361H17.0348C17.5679 8.45361 18 8.90811 18 9.46815C18 10.0282 17.5679 10.4827 17.0348 10.4827H1.1578C0.624727 10.4827 0.192626 10.0285 0.192626 9.46815C0.192626 8.90776 0.62468 8.45361 1.1578 8.45361Z" fill="#121212"/>
<path d="M0.284794 8.75079L7.74308 0.910773C8.12015 0.514768 8.73075 0.514768 9.10782 0.910773C9.48489 1.30712 9.48489 1.94964 9.10782 2.34564L2.33191 9.46835L9.10782 16.5911C9.48489 16.9871 9.48489 17.6296 9.10782 18.0256C8.91929 18.2238 8.67253 18.3229 8.42545 18.3229C8.17837 18.3229 7.93161 18.2238 7.74308 18.0256L0.284794 10.1857C-0.0922761 9.78931 -0.0922761 9.14675 0.284794 8.75079Z" fill="#121212"/>
</svg>
