<svg width="18" height="19" viewBox="0 0 18 19" fill="none" xmlns="http://www.w3.org/2000/svg">
<path d="M16.8421 8.45361H0.965169C0.4321 8.45361 0 8.90811 0 9.46815C0 10.0282 0.432053 10.4827 0.965169 10.4827H16.8421C17.3752 10.4827 17.8073 10.0285 17.8073 9.46815C17.8073 8.90776 17.3752 8.45361 16.8421 8.45361Z" fill="#121212"/>
<path d="M17.7152 8.75079L10.2569 0.910773C9.87985 0.514768 9.26924 0.514768 8.89218 0.910773C8.51511 1.30712 8.51511 1.94964 8.89218 2.34564L15.6681 9.46835L8.89218 16.5911C8.51511 16.9871 8.51511 17.6296 8.89218 18.0256C9.08071 18.2238 9.32746 18.3229 9.57455 18.3229C9.82163 18.3229 10.0684 18.2238 10.2569 18.0256L17.7152 10.1857C18.0922 9.78931 18.0922 9.14675 17.7152 8.75079Z" fill="#121212"/>
</svg>
