<svg width="88" height="88" viewBox="0 0 88 88" fill="none" xmlns="http://www.w3.org/2000/svg">
<g clip-path="url(#clip0_2_21343)">
<path d="M87.9955 43.9991C87.9955 68.2995 68.299 88 43.9964 88C19.6993 88 0 68.2981 0 43.9991C0 19.7001 19.6993 0 43.9969 0C68.2993 0 87.9955 19.6984 87.9955 43.9991Z" fill="#BF573F"/>
<path d="M82.0963 43.9993C82.0963 65.04 65.0384 82.1002 43.9963 82.1002C22.9577 82.1002 5.89844 65.04 5.89844 43.9993C5.89844 22.9585 22.9569 5.90454 43.9968 5.90454C65.0375 5.90454 82.0963 22.958 82.0963 43.9993Z" fill="white"/>
<path fill-rule="evenodd" clip-rule="evenodd" d="M43.9964 88C68.299 88 87.9955 68.2995 87.9955 43.9991C87.9955 19.6984 68.2993 0 43.9969 0C19.6993 0 0 19.7001 0 43.9991C0 68.2981 19.6993 88 43.9964 88ZM43.9963 82.1001C65.0384 82.1001 82.0963 65.0399 82.0963 43.9991C82.0963 22.9579 65.0375 5.90442 43.9968 5.90442C22.9569 5.90442 5.89844 22.9584 5.89844 43.9991C5.89844 65.0399 22.9577 82.1001 43.9963 82.1001Z" fill="#BF573F"/>
<path d="M45.0706 15.9384V10.7597C45.0706 10.1706 44.5931 9.69312 44.0041 9.69312C43.415 9.69312 42.9375 10.1706 42.9375 10.7597V15.9384C42.9375 16.5275 43.415 17.005 44.0041 17.005C44.5931 17.005 45.0706 16.5275 45.0706 15.9384Z" fill="#BF573F"/>
<path d="M15.9386 42.9351H10.7514C10.1638 42.9351 9.6875 43.4114 9.6875 43.999C9.6875 44.5865 10.1638 45.0629 10.7514 45.0629H15.9386C16.5262 45.0629 17.0025 44.5865 17.0025 43.999C17.0025 43.4114 16.5262 42.9351 15.9386 42.9351Z" fill="#BF573F"/>
<path d="M45.0706 77.2454V72.0605C45.0706 71.4714 44.5931 70.9939 44.0041 70.9939C43.415 70.9939 42.9375 71.4714 42.9375 72.0605V77.2454C42.9375 77.8345 43.415 78.312 44.0041 78.312C44.5931 78.312 45.0706 77.8345 45.0706 77.2454Z" fill="#BF573F"/>
<path d="M77.2464 42.9351H72.0561C71.4685 42.9351 70.9922 43.4114 70.9922 43.999C70.9922 44.5865 71.4685 45.0629 72.0561 45.0629H77.2464C77.834 45.0629 78.3103 44.5865 78.3103 43.999C78.3103 43.4114 77.834 42.9351 77.2464 42.9351Z" fill="#BF573F"/>
<path fill-rule="evenodd" clip-rule="evenodd" d="M10.0952 25.2571L42.8871 44.9322L43.3164 82.6686C36.6401 82.7344 30.0436 81.0431 24.2285 77.7809L24.2203 77.7955C14.708 72.4278 7.73163 63.0947 5.54419 52.0376C4.69139 47.7648 4.59369 43.4235 5.20073 39.1993C5.68562 35.7876 6.62244 32.5222 7.94869 29.4652C8.24989 28.7675 8.57212 28.0781 8.91512 27.3982L8.91938 27.4004C9.2889 26.6722 9.68116 25.9574 10.0952 25.2571Z" fill="#BF573F" fill-opacity="0.2"/>
</g>
<defs>
<clipPath id="clip0_2_21343">
<rect width="88" height="88" fill="white"/>
</clipPath>
</defs>
</svg>
