<svg width="88" height="88" viewBox="0 0 88 88" fill="none" xmlns="http://www.w3.org/2000/svg">
<g clip-path="url(#clip0_2_21311)">
<path d="M87.9975 43.9991C87.9975 68.2995 68.301 88 43.9983 88C19.7012 88 0.00195312 68.2981 0.00195312 43.9991C0.00195312 19.7001 19.7012 0 43.9989 0C68.3013 0 87.9975 19.6984 87.9975 43.9991Z" fill="#D98F4E"/>
<path d="M82.0983 43.9993C82.0983 65.04 65.0403 82.1002 43.9982 82.1002C22.9597 82.1002 5.90039 65.04 5.90039 43.9993C5.90039 22.9585 22.9588 5.90454 43.9987 5.90454C65.0395 5.90454 82.0983 22.958 82.0983 43.9993Z" fill="white"/>
<path fill-rule="evenodd" clip-rule="evenodd" d="M44.0332 5.00031C44.0849 5.0001 44.1367 5 44.1884 5C57.534 5 69.2645 11.8582 76.0682 22.2434L75.8456 22.3884C76.2718 23.0454 76.6784 23.7164 77.0645 24.4006L45.6408 42.0694L44.1515 43.0399L44.0332 42.9734L43.9149 43.0399L42.4256 42.0694L11.002 24.4006C11.388 23.7164 11.7946 23.0454 12.2208 22.3884L11.9983 22.2434C18.8019 11.8582 30.5324 5 43.878 5C43.9297 5 43.9815 5.0001 44.0332 5.00031Z" fill="#D98F4E" fill-opacity="0.2"/>
<path fill-rule="evenodd" clip-rule="evenodd" d="M43.9983 88C68.301 88 87.9975 68.2995 87.9975 43.9991C87.9975 19.6984 68.3013 0 43.9989 0C19.7012 0 0.00195312 19.7001 0.00195312 43.9991C0.00195312 68.2981 19.7012 88 43.9983 88ZM43.9982 82.1001C65.0403 82.1001 82.0983 65.0399 82.0983 43.9991C82.0983 22.9579 65.0395 5.90442 43.9987 5.90442C22.9588 5.90442 5.90039 22.9584 5.90039 43.9991C5.90039 65.0399 22.9597 82.1001 43.9982 82.1001Z" fill="#D98F4E"/>
<path d="M45.0687 15.9384V10.7597C45.0687 10.1706 44.5912 9.69312 44.0021 9.69312C43.4131 9.69312 42.9355 10.1706 42.9355 10.7597V15.9384C42.9355 16.5275 43.4131 17.005 44.0021 17.005C44.5912 17.005 45.0687 16.5275 45.0687 15.9384Z" fill="#D98F4E"/>
<path d="M15.9405 42.9351H10.7534C10.1658 42.9351 9.68945 43.4114 9.68945 43.999C9.68945 44.5865 10.1658 45.0629 10.7534 45.0629H15.9405C16.5281 45.0629 17.0045 44.5865 17.0045 43.999C17.0045 43.4114 16.5281 42.9351 15.9405 42.9351Z" fill="#D98F4E"/>
<path d="M45.0687 77.2454V72.0605C45.0687 71.4714 44.5912 70.9939 44.0021 70.9939C43.4131 70.9939 42.9355 71.4714 42.9355 72.0605V77.2454C42.9355 77.8345 43.4131 78.312 44.0021 78.312C44.5912 78.312 45.0687 77.8345 45.0687 77.2454Z" fill="#D98F4E"/>
<path d="M77.2483 42.9351H72.058C71.4705 42.9351 70.9941 43.4114 70.9941 43.999C70.9941 44.5865 71.4705 45.0629 72.058 45.0629H77.2483C77.8359 45.0629 78.3122 44.5865 78.3122 43.999C78.3122 43.4114 77.8359 42.9351 77.2483 42.9351Z" fill="#D98F4E"/>
</g>
<defs>
<clipPath id="clip0_2_21311">
<rect width="88" height="88" fill="white"/>
</clipPath>
</defs>
</svg>
