<svg width="88" height="88" viewBox="0 0 88 88" fill="none" xmlns="http://www.w3.org/2000/svg">
<g clip-path="url(#clip0_2_21328)">
<path d="M87.9975 43.9991C87.9975 68.2995 68.301 88 43.9983 88C19.7012 88 0.00195312 68.2981 0.00195312 43.9991C0.00195312 19.7001 19.7012 0 43.9989 0C68.3013 0 87.9975 19.6984 87.9975 43.9991Z" fill="#2DA0A6"/>
<path d="M82.0983 43.9993C82.0983 65.04 65.0403 82.1002 43.9982 82.1002C22.9597 82.1002 5.90039 65.04 5.90039 43.9993C5.90039 22.9585 22.9588 5.90454 43.9987 5.90454C65.0395 5.90454 82.0983 22.958 82.0983 43.9993Z" fill="white"/>
<path d="M76.302 65.6391C84.1364 53.7447 84.4306 39.0787 78.3548 27.2528L44.5543 44.684L44.3659 82.7777C56.7812 82.8083 68.9611 76.7843 76.302 65.6391Z" fill="#2DA0A6" fill-opacity="0.2"/>
<path fill-rule="evenodd" clip-rule="evenodd" d="M43.9983 88C68.301 88 87.9975 68.2995 87.9975 43.9991C87.9975 19.6984 68.3013 0 43.9989 0C19.7012 0 0.00195312 19.7001 0.00195312 43.9991C0.00195312 68.2981 19.7012 88 43.9983 88ZM43.9982 82.1001C65.0403 82.1001 82.0983 65.0399 82.0983 43.9991C82.0983 22.9579 65.0395 5.90442 43.9987 5.90442C22.9588 5.90442 5.90039 22.9584 5.90039 43.9991C5.90039 65.0399 22.9597 82.1001 43.9982 82.1001Z" fill="#2DA0A6"/>
<path d="M45.0687 15.9387V10.7599C45.0687 10.1709 44.5912 9.69336 44.0021 9.69336C43.4131 9.69336 42.9355 10.1709 42.9355 10.7599V15.9387C42.9355 16.5277 43.4131 17.0053 44.0021 17.0053C44.5912 17.0053 45.0687 16.5277 45.0687 15.9387Z" fill="#2DA0A6"/>
<path d="M15.9405 42.9353H10.7534C10.1658 42.9353 9.68945 43.4116 9.68945 43.9992C9.68945 44.5868 10.1658 45.0631 10.7534 45.0631H15.9405C16.5281 45.0631 17.0045 44.5868 17.0045 43.9992C17.0045 43.4116 16.5281 42.9353 15.9405 42.9353Z" fill="#2DA0A6"/>
<path d="M45.0687 77.2457V72.0607C45.0687 71.4717 44.5912 70.9941 44.0021 70.9941C43.4131 70.9941 42.9355 71.4717 42.9355 72.0607V77.2457C42.9355 77.8347 43.4131 78.3122 44.0021 78.3122C44.5912 78.3122 45.0687 77.8347 45.0687 77.2457Z" fill="#2DA0A6"/>
<path d="M77.2483 42.9353H72.058C71.4705 42.9353 70.9941 43.4116 70.9941 43.9992C70.9941 44.5868 71.4705 45.0631 72.058 45.0631H77.2483C77.8359 45.0631 78.3122 44.5868 78.3122 43.9992C78.3122 43.4116 77.8359 42.9353 77.2483 42.9353Z" fill="#2DA0A6"/>
</g>
<defs>
<clipPath id="clip0_2_21328">
<rect width="88" height="88" fill="white"/>
</clipPath>
</defs>
</svg>
