<svg width="52" height="24" viewBox="0 0 52 24" fill="none" xmlns="http://www.w3.org/2000/svg">
<path d="M51.2229 7.22434C50.9533 7.29323 50.7554 7.58041 50.8484 7.83798C50.8787 7.9215 50.9016 8.00603 50.918 8.09255C50.9289 8.2076 50.9285 8.32266 50.9168 8.43738C50.8921 8.57049 50.853 8.70011 50.8013 8.8264C50.756 8.91774 50.7046 9.00668 50.6456 9.09078C50.6273 9.11691 50.6087 9.14278 50.5894 9.16815C50.585 9.17356 50.5792 9.18105 50.5726 9.18887C50.5384 9.22722 50.5033 9.26491 50.4658 9.30051C50.4195 9.34502 50.3713 9.38845 50.3207 9.4288C50.3101 9.43695 50.2996 9.44544 50.2893 9.45359C50.2759 9.46274 50.2609 9.47289 50.2514 9.47905C50.1525 9.54153 50.0493 9.59544 49.9413 9.64194C49.7929 9.69452 49.6397 9.73295 49.483 9.75775C49.3006 9.77505 49.1179 9.77438 48.9356 9.75708C48.7408 9.72721 48.5504 9.67871 48.3666 9.61182C48.2204 9.54968 48.0793 9.47639 47.948 9.38953C47.9326 9.3793 47.9177 9.36915 47.9024 9.359C47.8783 9.34061 47.8542 9.32198 47.8309 9.30301C47.8823 9.27622 47.933 9.24835 47.9821 9.21849C48.4151 8.95643 48.8082 8.58647 49.012 8.13872C49.1389 7.86002 49.2257 7.58781 49.2429 7.28299C49.2571 7.03083 49.225 6.75621 49.1192 6.52136C49.0073 6.27328 48.8683 6.03934 48.6433 5.8628C48.4285 5.69408 48.1893 5.55632 47.9144 5.4891C47.3742 5.35707 46.7779 5.48127 46.3899 5.86821C46.0281 6.22902 45.8673 6.70355 45.8298 7.1879C45.7951 7.6329 45.8763 8.10503 46.0358 8.5249C46.042 8.54088 46.0482 8.55685 46.0547 8.57274C45.9822 8.5541 45.9104 8.53206 45.84 8.50685C45.739 8.46376 45.6408 8.41492 45.5476 8.35818C45.5159 8.3388 45.4845 8.31917 45.4535 8.29878C45.4342 8.28314 45.3634 8.2299 45.3423 8.2116C45.2904 8.16709 45.2401 8.12133 45.1931 8.07242C45.1726 8.05137 45.1121 7.9794 45.0993 7.96584C45.0939 7.95836 45.0881 7.95054 45.0825 7.94313C44.979 7.7374 44.9221 7.51677 44.8973 7.28466C44.8881 7.1998 44.9075 7.16719 45.0012 7.14348C45.5628 7.00155 45.898 6.53251 45.8331 6.00814C45.7466 5.30956 45.1395 4.81981 44.3817 4.82763C44.1629 4.82995 43.9444 4.86257 43.7252 4.87787C43.6946 4.87987 43.6566 4.87005 43.6311 4.85342C43.459 4.74036 43.2967 4.6124 43.1173 4.51091C42.4776 4.1501 41.8263 3.80693 41.191 3.43971C40.5958 3.09554 40.0199 2.72283 39.4274 2.37459C38.4563 1.80438 37.4363 1.32544 36.3473 0.977188C35.3601 0.661552 34.3463 0.471789 33.3058 0.403571C32.7333 0.365884 32.1605 0.334686 31.5878 0.299994C30.9704 0.26264 30.3537 0.217883 29.736 0.188682C29.0883 0.15815 28.4394 0.133025 27.7911 0.122127C26.9158 0.107152 26.0406 0.106487 25.165 0.102826C24.2955 0.0994154 23.4262 0.110231 22.5571 0.0956718C21.7063 0.0814458 20.8558 0.043427 20.0051 0.0148917C19.946 0.012895 19.8869 0.00507479 19.8282 0H19.202C19.1612 0.00507479 19.1207 0.0122295 19.0799 0.0148917C18.7801 0.0328614 18.4803 0.0458387 18.1809 0.0685505C17.6448 0.109315 17.1186 0.205653 16.5979 0.32853C15.8499 0.505066 15.1246 0.744995 14.4098 1.01288C13.3474 1.41104 12.3135 1.86719 11.2891 2.34239C10.8588 2.54197 10.4346 2.75345 10.001 2.94696C9.43432 3.19986 8.85664 3.43164 8.29174 3.68829C7.23666 4.16757 6.22538 4.71714 5.26853 5.35183C4.77656 5.67803 4.30426 6.02628 3.86226 6.40946C3.67777 6.56936 3.50339 6.73941 3.32399 6.90471C3.27555 6.94922 3.23032 6.98824 3.14746 6.97127C2.65773 6.8711 2.17122 6.76046 1.71277 6.5667C1.6216 6.52801 1.54026 6.46179 1.46554 6.39765C1.39188 6.33417 1.34004 6.24799 1.26425 6.1875C1.14134 6.08942 1.0163 5.98659 0.874445 5.91771C0.685131 5.82636 0.485717 5.91188 0.413137 6.09824C0.381406 6.18002 0.364692 6.26928 0.35772 6.35622C0.348603 6.47336 0.355575 6.59182 0.355575 6.71229C0.332961 6.71087 0.309632 6.70821 0.286303 6.70788C0.0988658 6.70613 -0.012774 6.80729 0.00116982 6.98175C0.0076948 7.06561 0.0332584 7.15047 0.0657046 7.22958C0.159825 7.46036 0.306414 7.66468 0.491258 7.83681C0.78086 8.10669 1.02112 8.40976 1.25486 8.72041C1.32744 8.81716 1.41718 8.90468 1.50942 8.98654C1.77561 9.22273 2.10382 9.34461 2.45903 9.40941C2.61179 9.4372 2.76642 9.46066 2.85473 9.60018C2.87154 9.62663 2.8777 9.66257 2.87699 9.69419C2.87484 9.79635 2.85071 9.90025 2.86492 10C2.8988 10.2349 2.94403 10.4688 2.99551 10.7009C3.08516 11.1059 3.20806 11.5056 3.22085 11.9229C3.22925 12.2019 3.19421 12.4718 2.99033 12.6947C2.90604 12.787 2.81236 12.8723 2.66864 12.8836C2.42614 12.9021 2.28321 13.0227 2.24701 13.249C2.23825 13.3034 2.20581 13.3272 2.14235 13.3241C1.98664 13.3169 1.86088 13.3703 1.76676 13.4905C1.7033 13.5712 1.61105 13.6133 1.50308 13.604C1.37356 13.5933 1.24485 13.5725 1.11578 13.5553C0.817865 13.5152 0.793374 13.632 0.852456 13.8414C0.913326 14.0572 0.992877 14.2682 1.05813 14.4829C1.0786 14.55 1.08879 14.6223 1.0895 14.6926C1.09245 14.919 1.06984 15.1471 1.09209 15.3718C1.13437 15.7995 1.39734 16.0876 1.90021 16.0619C2.01944 16.0557 2.1183 16.0819 2.21564 16.1433C2.3717 16.2415 2.51937 16.3447 2.60482 16.515C2.53957 16.5639 2.47351 16.6103 2.41041 16.6605C2.31414 16.7369 2.30064 16.8279 2.38672 16.912C2.61724 17.1374 2.89656 17.2794 3.2339 17.3091C3.48229 17.3313 3.7255 17.2895 3.96872 17.2508C4.38086 17.1857 4.79363 17.1722 5.19371 17.2987C5.92523 17.5304 6.67175 17.6818 7.44492 17.7174C7.82417 17.7352 8.20092 17.7171 8.57544 17.67C9.09547 17.6045 9.59584 17.4724 10.0685 17.257C10.3118 17.146 10.5656 17.131 10.811 17.223C11.0349 17.3069 11.2465 17.4216 11.4598 17.5288C11.7183 17.6588 11.9791 17.757 12.2824 17.6762C12.4539 17.6303 12.5203 17.6632 12.6267 17.8061C12.8503 18.1051 12.9053 18.4473 12.9148 18.7989C12.9222 19.0593 12.9069 19.3204 12.9188 19.5804C12.9301 19.8201 12.9637 20.0589 12.9881 20.2983C12.9936 20.3519 13.0195 20.4096 13.0053 20.4578C12.8893 20.8535 12.773 21.2497 12.6424 21.6414C12.5381 21.9544 12.3736 22.233 12.0844 22.4418C11.9761 22.5199 11.8918 22.6363 11.8229 22.7489C11.7686 22.8377 11.7208 22.9318 11.6704 23.0238C11.5187 23.3015 11.3444 23.5622 11.095 23.8036C11.2 23.8483 11.2889 23.9019 11.3864 23.9253C11.9823 24.0683 12.561 24.0025 13.1099 23.7573C13.2736 23.6843 13.4121 23.6453 13.5883 23.702C13.716 23.7431 13.8348 23.6976 13.9111 23.5846C13.9439 23.5356 13.9833 23.4876 14.0026 23.4339C14.0545 23.2886 14.1054 23.1422 14.1416 22.9932C14.213 22.7003 14.2776 22.406 14.3385 22.111C14.4315 21.6616 14.5602 21.2258 14.8188 20.8294C14.9599 20.6127 15.0926 20.3899 15.1543 20.1386C15.1784 20.0401 15.1934 19.9397 15.2127 19.8396C15.2276 19.8381 15.2393 19.8355 15.2509 19.8369C15.4701 19.8568 15.6105 19.9746 15.6824 20.1597C15.7404 20.3097 15.7812 20.4656 15.8283 20.619C15.9052 20.8705 16.0168 21.0999 16.2494 21.2655C16.3567 21.3418 16.4679 21.424 16.5441 21.5251C16.8381 21.9165 17.2257 22.1559 17.7378 22.2159C17.7615 22.2186 17.7837 22.2383 17.8052 22.2523C17.8709 22.2947 17.9315 22.3456 18.0014 22.3798C18.2899 22.521 18.5806 22.6585 18.8723 22.7941C18.8923 22.8031 18.9391 22.7944 18.9521 22.7787C19.0028 22.7183 19.0608 22.6565 19.0882 22.5862C19.2552 22.1526 19.1641 21.7536 18.8704 21.3939C18.7942 21.3002 18.6823 21.2321 18.5805 21.1467C18.6126 21.1333 18.648 21.1131 18.6862 21.1027C18.78 21.0769 18.877 21.061 18.9688 21.0314C19.0961 20.991 19.1329 20.9117 19.0775 20.7986C18.9878 20.6156 18.831 20.4958 18.6337 20.4245C18.5043 20.3778 18.3678 20.3472 18.2373 20.3033C18.2038 20.2921 18.1742 20.2606 18.1516 20.232C18.0762 20.1381 18.0174 20.0285 17.9277 19.9487C17.8238 19.8561 17.694 19.7888 17.5758 19.7102C17.5094 19.6657 17.4566 19.6151 17.4478 19.531C17.4226 19.2869 17.5197 19.0984 17.7381 18.9647C17.8647 18.8873 17.9927 18.8119 18.1228 18.74C18.4507 18.5591 18.7263 18.3303 18.9167 18.018C18.9933 17.8924 19.102 17.7957 19.2449 17.7359C19.7387 17.5298 20.1626 17.2291 20.5618 16.8955C20.622 16.8452 20.6774 16.7944 20.762 16.7811C20.8995 16.7596 21.0352 16.7272 21.1734 16.7132C21.7025 16.6605 22.2317 16.6858 22.7591 16.7325C23.146 16.7671 23.5319 16.8157 23.9181 16.8588C24.4221 16.9152 24.925 16.9778 25.4296 17.0279C25.8757 17.0723 26.3224 17.1137 26.7702 17.1392C27.3111 17.1698 27.8526 17.1704 28.3938 17.1283C28.8351 17.0937 29.2723 17.0383 29.7005 16.9323C30.525 16.7275 31.3587 16.5809 32.2135 16.5398C32.8433 16.5093 33.4672 16.5374 34.0843 16.6614C34.3658 16.7181 34.6423 16.7907 34.8892 16.9369C34.9377 16.9657 34.9607 16.9986 34.9668 17.056C35.0055 17.4077 35.0431 17.7601 35.0956 18.1099C35.1615 18.5513 35.2399 18.9911 35.2123 19.4386C35.1981 19.6662 35.1422 19.885 35.0182 20.0864C34.6583 20.671 34.2973 21.2552 33.9464 21.8444C33.7798 22.124 33.6233 22.4102 33.5607 22.7302C33.5519 22.7758 33.5622 22.8284 33.5413 22.8671C33.4286 23.0766 33.3133 23.2853 33.1901 23.4893C33.1285 23.5912 33.0475 23.6828 32.9669 23.7897C33.2397 23.8294 33.4957 23.8717 33.7536 23.9028C34.1021 23.9444 34.4526 23.9655 34.8002 23.8925C35.1106 23.8277 35.3637 23.6899 35.4833 23.3953C35.4858 23.3891 35.4963 23.3857 35.4986 23.3847C35.5573 23.4227 35.6094 23.4645 35.6685 23.4939C35.8301 23.574 36.1028 23.4976 36.0868 23.2604C36.0766 23.1073 36.1029 22.9515 36.1185 22.7975C36.1601 22.3907 36.2669 21.9991 36.4351 21.622C36.7338 20.9516 37.2173 20.4065 37.78 19.9171C37.8406 19.8644 37.9248 19.8295 38.0047 19.8037C38.1499 19.7572 38.3001 19.7242 38.4481 19.6852C38.6163 19.6409 38.752 19.5536 38.822 19.4015C38.8985 19.2348 38.9766 19.0665 39.027 18.8923C39.0736 18.7317 39.0849 18.5621 39.1115 18.3957C39.3118 18.3751 39.5788 18.481 39.6936 18.6375C39.7655 18.7351 39.818 18.8455 39.893 18.9405C39.9835 19.0553 40.0889 19.1599 40.1874 19.2691C40.2512 19.3398 40.3314 19.4028 40.3744 19.4832C40.5787 19.8654 40.6104 20.2846 40.641 20.7001C40.6596 20.9566 40.6418 21.2153 40.6446 21.473C40.648 21.7748 40.6475 22.0768 40.6662 22.3779C40.6734 22.4942 40.6537 22.5975 40.5973 22.6943C40.4722 22.9074 40.3406 23.1173 40.2096 23.3273C40.106 23.4932 40.1214 23.5287 40.3273 23.5602C40.8328 23.6382 41.3353 23.6182 41.828 23.4901C42.1551 23.4053 42.4534 23.2719 42.5782 22.9431C42.6406 22.9664 42.6992 22.9936 42.7613 23.0104C42.9068 23.0494 42.9977 22.9911 43.0173 22.8515C43.0421 22.6732 42.9983 22.5042 42.9254 22.3427C42.6788 21.7972 42.4557 21.2456 42.3816 20.6524C42.3453 20.3588 42.3543 20.0678 42.4367 19.78C42.5107 19.5217 42.6595 19.3 42.8146 19.0802C42.8868 18.9777 42.959 18.87 42.9228 18.7411C42.906 18.681 42.9233 18.6446 42.958 18.5996C43.1125 18.3973 43.2001 18.1719 43.1181 17.9282C43.0571 17.746 42.9627 17.5711 42.8649 17.4025C42.6997 17.1176 42.5298 16.8358 42.4729 16.511C42.4645 16.4626 42.4623 16.4004 42.4871 16.361C42.8332 15.8135 43.1851 15.2691 43.5345 14.7233C43.8305 14.2603 44.1271 13.7952 44.2977 13.2773C44.4662 12.7664 44.6012 12.2461 44.7634 11.7333C45.015 10.9383 45.1362 10.1274 45.1573 9.30259C45.3484 9.40068 45.5504 9.47805 45.7587 9.53171C46.0566 9.60841 46.3677 9.63628 46.6759 9.61723C46.7296 9.67963 46.7854 9.74044 46.8444 9.79951C47.2102 10.1665 47.6675 10.4413 48.1752 10.6053C49.1722 10.9274 50.3535 10.7696 51.1349 10.0859C51.8468 9.46374 52.2006 8.44853 51.8825 7.57109C51.7889 7.31536 51.5164 7.14905 51.2229 7.22434ZM47.6887 8.17341C47.6464 8.21076 47.6034 8.24704 47.5582 8.28131C47.5472 8.2888 47.5366 8.2962 47.5298 8.30095C47.5006 8.32 47.4714 8.33897 47.4412 8.3566C47.3551 8.40752 47.2661 8.45302 47.1742 8.49371C47.1577 8.46276 47.1422 8.43156 47.1268 8.40036C47.0273 8.16717 46.9562 7.92516 46.9146 7.67741C46.8931 7.49447 46.8887 7.31153 46.908 7.1285C46.9295 7.01103 46.9613 6.89598 47.0058 6.78433C47.0273 6.74224 47.0503 6.70114 47.0769 6.66179C47.0886 6.64448 47.1006 6.62718 47.113 6.60988C47.1199 6.60206 47.1268 6.59457 47.1324 6.58916C47.1578 6.5637 47.1837 6.53891 47.2119 6.5162C47.2458 6.49515 47.2808 6.47652 47.3169 6.45921C47.3508 6.44898 47.3851 6.44016 47.4197 6.43342C47.4634 6.43134 47.5072 6.43134 47.551 6.43409C47.6087 6.44532 47.6648 6.45988 47.7203 6.47818C47.7673 6.49956 47.8129 6.52302 47.8566 6.54981C47.8661 6.55555 47.8756 6.56171 47.885 6.56778C47.904 6.58276 47.9226 6.59798 47.9401 6.61428C47.9667 6.63841 47.9923 6.66354 48.0163 6.68966C48.0488 6.73483 48.0773 6.78134 48.1028 6.82984C48.1309 6.90247 48.152 6.97651 48.1674 7.05213C48.1758 7.14922 48.1746 7.24631 48.1653 7.34306C48.143 7.45712 48.1098 7.5681 48.066 7.67675C48.0143 7.78024 47.9538 7.88007 47.8826 7.97341C47.8753 7.98257 47.8625 7.99821 47.8513 8.01177C47.8403 8.024 47.829 8.03623 47.8177 8.04812C47.7762 8.0913 47.734 8.13373 47.6887 8.17341Z" fill="#A6A6A6"/>
</svg>
