<svg width="24" height="30" viewBox="0 0 24 30" fill="none" xmlns="http://www.w3.org/2000/svg">
<path d="M2.11665 15.6182C1.97695 14.6739 1.78201 11.863 2.08091 10.4978C2.24336 9.77658 3.29437 5.83018 3.42758 5.38405C3.42758 5.38405 2.31158 6.09685 1.88273 5.50313C1.35641 4.77356 1.29955 4.36935 1.51723 3.94334C1.61794 3.74544 1.50099 3.56263 1.26869 3.54921C0.841461 3.52405 0 3.96515 0 3.96515C0 3.96515 0.190063 3.2121 0.703387 2.88002C1.07538 2.63851 1.08513 2.51942 1.08513 2.51942C1.08513 2.51942 0.885321 2.33158 1.03477 2.14206C1.14686 2.00117 1.19721 1.80663 1.5221 1.919C1.69592 1.9777 2.08741 0.957971 2.26935 0.666142C2.45129 0.374312 3.08157 0.426308 3.16766 0.391087C3.25376 0.355866 3.13518 -0.123806 3.31712 0.0304945C3.49905 0.184795 3.98151 1.09383 3.94902 1.37224C4.79768 1.60928 5.5774 2.05681 6.22035 2.67591C6.86329 3.29501 7.35 4.06692 7.63814 4.9245C8.70215 7.92665 9.28369 8.78201 12.0761 8.97488C14.8685 9.16776 19.4056 9.95268 20.3689 9.72961C21.3322 9.50655 23.1304 8.38788 23.7477 9.65582C23.9868 10.0993 24.0592 10.6181 23.951 11.1132C23.8428 11.6083 23.5617 12.0448 23.1613 12.3393C23.1613 12.3393 23.9264 12.5288 23.7104 13.5569C23.4943 14.585 22.7471 15.1519 22.3134 15.1519C22.4361 15.3496 22.5096 15.5756 22.5271 15.8097C22.5447 16.0439 22.5059 16.2788 22.4141 16.4937C22.0989 17.2316 21.1844 17.7801 20.7685 17.7298C20.7685 17.7298 20.9017 18.1423 20.4534 18.4845C20.005 18.8266 19.4397 19.3432 18.7412 18.9994C18.7412 18.9994 18.0005 21.3474 15.9796 22.0887C14.8425 22.5047 14.5875 23.5143 14.3552 23.8229C14.1733 24.0645 13.3675 24.4083 13.3675 24.4083C13.2167 24.9229 13.108 25.4497 13.0427 25.9832C12.9436 26.8217 12.4449 27.7157 13.1417 27.8029C13.8386 27.8901 14.1392 28.0947 14.1554 28.249C14.1554 28.249 12.9257 28.1283 12.6089 28.3346C12.2922 28.5409 12.1606 29.8105 11.4296 30C11.4296 30 11.6895 28.935 11.6733 28.826C11.657 28.717 11.2119 29.0557 10.8139 29.2335C10.6632 29.3115 10.4975 29.354 10.329 29.3577C10.1604 29.3615 9.99312 29.3265 9.83925 29.2553C9.83925 29.2553 11.1388 28.5056 11.2574 28.1534C11.3476 27.9394 11.4603 27.7364 11.5937 27.548C11.5937 27.548 10.2178 28.5543 9.54036 28.3362C9.54036 28.3362 10.1544 27.8767 10.2876 27.7744C10.2876 27.7744 9.45914 27.709 8.66316 27.709C8.80402 27.5095 9.01099 27.3704 9.24471 27.3182C9.47538 27.2763 10.4078 27.2662 10.4078 27.2662C10.4078 27.2662 9.92048 26.7345 9.87662 26.649C9.87662 26.649 10.6092 27.0096 10.9244 27.1521C11.2395 27.2947 11.3549 26.2767 11.4556 26.0368C11.5563 25.797 12.12 24.1752 12.12 24.1752C12.12 24.1752 9.9822 23.1051 9.89286 21.9948C9.84088 21.3441 8.15471 21.916 7.03384 21.3776C5.86424 20.804 2.54713 18.5231 2.11665 15.6182Z" fill="#A6A6A6"/>
</svg>
