<svg width="18" height="18" viewBox="0 0 18 18" fill="none" xmlns="http://www.w3.org/2000/svg">
<path d="M16.8421 8.03491H0.965169C0.4321 8.03491 0 8.4673 0 9.00009C0 9.53288 0.432053 9.96527 0.965169 9.96527H16.8421C17.3752 9.96527 17.8073 9.53321 17.8073 9.00009C17.8073 8.46697 17.3752 8.03491 16.8421 8.03491Z" fill="#121212"/>
<path d="M17.7152 8.31734L10.2569 0.858727C9.87985 0.481987 9.26924 0.481987 8.89218 0.858727C8.51511 1.23579 8.51511 1.84705 8.89218 2.22379L15.6681 8.99999L8.89218 15.7762C8.51511 16.153 8.51511 16.7642 8.89218 17.141C9.08071 17.3295 9.32746 17.4238 9.57455 17.4238C9.82163 17.4238 10.0684 17.3295 10.2569 17.141L17.7152 9.68241C18.0922 9.30534 18.0922 8.69403 17.7152 8.31734Z" fill="#121212"/>
</svg>
