<svg width="10" height="10" viewBox="0 0 10 10" fill="none" xmlns="http://www.w3.org/2000/svg">
<path d="M0.706956 0.292893C1.09748 -0.0976311 1.73065 -0.0976311 2.12117 0.292893L9.19224 7.36396C9.58276 7.75449 9.58276 8.38765 9.19224 8.77817C8.80171 9.1687 8.16855 9.1687 7.77802 8.77817L0.706956 1.70711C0.316431 1.31658 0.316432 0.683417 0.706956 0.292893Z" fill="#2DA0A6"/>
<path d="M9.19246 0.292893C8.80193 -0.0976311 8.16877 -0.0976311 7.77824 0.292893L0.707177 7.36396C0.316653 7.75449 0.316653 8.38765 0.707177 8.77817C1.0977 9.1687 1.73087 9.1687 2.12139 8.77817L9.19246 1.70711C9.58298 1.31658 9.58298 0.683417 9.19246 0.292893Z" fill="#2DA0A6"/>
</svg>
