<svg width="24" height="24" viewBox="0 0 24 24" fill="none" xmlns="http://www.w3.org/2000/svg">
<path d="M19.0042 16.9976C17.3541 16.9976 16.0117 18.34 16.0117 19.9901C16.0117 21.6401 17.3542 22.9826 19.0042 22.9826C20.6543 22.9826 21.9968 21.6401 21.9968 19.9901C21.9968 18.34 20.6543 16.9976 19.0042 16.9976ZM19.0042 21.1871C18.3441 21.1871 17.8072 20.6502 17.8072 19.9901C17.8072 19.3299 18.3441 18.7931 19.0042 18.7931C19.6644 18.7931 20.2012 19.3299 20.2012 19.9901C20.2012 20.6502 19.6644 21.1871 19.0042 21.1871Z" fill="#2DA0A6"/>
<path d="M23.8092 5.43182C23.6392 5.21427 23.3786 5.08738 23.1024 5.08738H5.54159L4.73361 1.70674C4.63695 1.30277 4.27573 1.01758 3.86037 1.01758H0.897755C0.401909 1.01753 0 1.41944 0 1.91529C0 2.41113 0.401909 2.81304 0.897755 2.81304H3.15175L6.06946 15.0214C6.16611 15.4257 6.52733 15.7105 6.9427 15.7105H20.9179C21.3305 15.7105 21.6902 15.4292 21.7893 15.0288L23.9738 6.20085C24.0399 5.93277 23.9792 5.64937 23.8092 5.43182ZM20.2155 13.9151H7.65131L5.97069 6.88289H21.9553L20.2155 13.9151Z" fill="#2DA0A6"/>
<path d="M8.14095 16.9976C6.49085 16.9976 5.14844 18.34 5.14844 19.9901C5.14844 21.6401 6.4909 22.9826 8.14095 22.9826C9.79101 22.9826 11.1335 21.6401 11.1335 19.9901C11.1335 18.34 9.79101 16.9976 8.14095 16.9976ZM8.14095 21.1871C7.48081 21.1871 6.94395 20.6502 6.94395 19.9901C6.94395 19.3299 7.48081 18.7931 8.14095 18.7931C8.8011 18.7931 9.33796 19.3299 9.33796 19.9901C9.33796 20.6502 8.8011 21.1871 8.14095 21.1871Z" fill="#2DA0A6"/>
</svg>
