<svg width="40" height="40" viewBox="0 0 40 40" fill="none" xmlns="http://www.w3.org/2000/svg">
<circle cx="20" cy="20" r="20" fill="#E7F4F5"/>
<path fill-rule="evenodd" clip-rule="evenodd" d="M16 18.9999C16.8869 18.9998 17.7486 18.7051 18.4498 18.1621C19.151 17.6191 19.6519 16.8585 19.874 15.9999H30C30.2652 15.9999 30.5196 15.8945 30.7071 15.707C30.8946 15.5195 31 15.2651 31 14.9999C31 14.7347 30.8946 14.4803 30.7071 14.2928C30.5196 14.1053 30.2652 13.9999 30 13.9999H19.874C19.6516 13.1417 19.1504 12.3816 18.4493 11.839C17.7481 11.2964 16.8866 11.002 16 11.002C15.1134 11.002 14.2519 11.2964 13.5507 11.839C12.8496 12.3816 12.3484 13.1417 12.126 13.9999H10C9.73478 13.9999 9.48043 14.1053 9.29289 14.2928C9.10536 14.4803 9 14.7347 9 14.9999C9 15.2651 9.10536 15.5195 9.29289 15.707C9.48043 15.8945 9.73478 15.9999 10 15.9999H12.126C12.57 17.7249 14.136 18.9999 16 18.9999ZM27.874 25.9999C27.6516 26.8581 27.1504 27.6182 26.4493 28.1608C25.7481 28.7034 24.8866 28.9978 24 28.9978C23.1134 28.9978 22.2519 28.7034 21.5507 28.1608C20.8496 27.6182 20.3484 26.8581 20.126 25.9999H10C9.73478 25.9999 9.48043 25.8945 9.29289 25.707C9.10536 25.5195 9 25.2651 9 24.9999C9 24.7347 9.10536 24.4803 9.29289 24.2928C9.48043 24.1053 9.73478 23.9999 10 23.9999H20.126C20.3484 23.1417 20.8496 22.3816 21.5507 21.839C22.2519 21.2964 23.1134 21.002 24 21.002C24.8866 21.002 25.7481 21.2964 26.4493 21.839C27.1504 22.3816 27.6516 23.1417 27.874 23.9999H30C30.2652 23.9999 30.5196 24.1053 30.7071 24.2928C30.8946 24.4803 31 24.7347 31 24.9999C31 25.2651 30.8946 25.5195 30.7071 25.707C30.5196 25.8945 30.2652 25.9999 30 25.9999H27.874ZM24 26.9999C24.5304 26.9999 25.0391 26.7892 25.4142 26.4141C25.7893 26.039 26 25.5303 26 24.9999C26 24.4695 25.7893 23.9608 25.4142 23.5857C25.0391 23.2106 24.5304 22.9999 24 22.9999C23.4696 22.9999 22.9609 23.2106 22.5858 23.5857C22.2107 23.9608 22 24.4695 22 24.9999C22 25.5303 22.2107 26.039 22.5858 26.4141C22.9609 26.7892 23.4696 26.9999 24 26.9999ZM18 14.9999C18 15.5303 17.7893 16.039 17.4142 16.4141C17.0391 16.7892 16.5304 16.9999 16 16.9999C15.4696 16.9999 14.9609 16.7892 14.5858 16.4141C14.2107 16.039 14 15.5303 14 14.9999C14 14.4695 14.2107 13.9608 14.5858 13.5857C14.9609 13.2106 15.4696 12.9999 16 12.9999C16.5304 12.9999 17.0391 13.2106 17.4142 13.5857C17.7893 13.9608 18 14.4695 18 14.9999Z" fill="#121212"/>
</svg>
