<svg width="68" height="51" viewBox="0 0 68 51" fill="none" xmlns="http://www.w3.org/2000/svg">
<path d="M34.2598 0.769043C34.1624 0.769043 34.0974 0.769043 34 0.769043C33.9026 0.769043 33.8376 0.769043 33.7402 0.769043C15.1328 0.769043 0 15.3628 0 33.2705C0 39.5159 1.94842 45.1877 5.1958 50.0629C5.39064 50.2541 5.8128 50.6683 6.20249 50.4453C6.62462 50.1904 6.29993 49.3619 6.17002 49.0751C3.76695 44.7416 2.43553 39.8027 2.43553 34.577C2.43553 17.7208 16.3668 3.98732 33.5129 3.85987C33.6753 3.85987 33.8376 3.85987 34 3.85987C34.1624 3.85987 34.3247 3.85987 34.4871 3.85987C51.6657 3.98732 65.5644 17.7208 65.5644 34.577C65.5644 39.7708 64.2328 44.6779 61.8948 48.9796H61.9598C61.9598 48.9796 61.3431 50.1585 61.8623 50.4453C62.155 50.6046 62.4796 50.4134 62.7066 50.2223C66.0191 45.3152 68 39.5796 68 33.2705C68 15.3628 52.8672 0.769043 34.2598 0.769043Z" fill="#6A301A"/>
<path fill-rule="evenodd" clip-rule="evenodd" d="M46.5668 50.1907L47.2487 47.9602L44.9756 44.3277L35.3634 44.2958L35.2984 44.3277C33.5449 45.3792 33.285 47.3229 34.4541 50.0632L27.3424 50.0313C27.3424 49.9995 27.5372 49.5215 27.5372 49.5215H26.0759L26.563 47.6416L25.1991 43.4673H24.16L24.095 43.4992C23.7378 43.6904 23.3481 43.8816 22.9584 44.0409C22.1466 44.3914 21.3023 44.7738 20.8151 45.3155L20.7827 45.3473L20.7502 45.4111C20.4255 46.3351 20.1007 47.2273 19.9383 48.1195L19.9059 48.2151L20.7502 49.8402L14.6776 49.7764L16.8209 43.531L18.4445 41.4918C18.9641 40.3128 19.0291 39.6436 19.1265 38.7833C19.159 38.5284 19.1915 38.2097 19.2239 37.8911L19.2564 37.5406L17.0807 37.6362L17.0482 37.8593C16.8209 38.9108 16.2688 39.5799 15.3271 39.9941C14.0931 40.6314 13.3137 41.7148 12.8266 42.7026C11.8524 39.6755 12.4369 38.5602 12.7617 37.923C14.5477 35.6287 15.6843 35.5969 16.8858 35.5969C17.6003 35.5969 18.3796 35.5969 19.2564 35.0871C19.8734 34.7365 21.075 33.8444 21.6595 33.3664C23.2831 32.761 24.3873 31.0084 25.6862 28.9691C27.0825 26.7386 28.7063 24.1895 31.4665 22.6282L32.0835 22.2777L31.4016 22.0864C29.3558 21.5129 28.3166 21.035 27.797 20.3977C28.3491 19.7285 28.966 19.1868 29.713 18.7726L30.0377 18.6133L29.8104 18.3265C28.9986 17.3387 28.7387 16.4147 28.9336 15.4906C29.2583 14.1841 30.6547 12.8777 33.0577 11.635C31.7263 13.3557 31.1743 15.2675 31.6938 16.5421C31.9861 17.275 32.7655 18.1672 34.8113 18.1672C35.0387 18.1672 35.266 18.1672 35.5257 18.1353C37.3118 17.8804 38.5458 17.7529 39.7798 17.7529C40.9489 17.7529 42.1179 17.8485 43.5143 18.0716H43.7416C45.2029 18.0716 46.307 17.4343 46.7617 16.3191C47.3137 14.9808 46.7617 13.1963 45.3003 11.5713C47.6385 12.2723 49.0673 13.2601 49.5544 14.5028C49.9766 15.5543 49.7168 16.8289 48.775 18.2627L48.6451 18.454L50.691 20.3339C49.3596 21.2899 48.1255 21.8953 46.4044 22.0864L45.9823 22.1183L46.1771 22.5007C46.9565 24.0939 46.7942 25.6871 45.6251 27.376L45.5276 27.5034L49.0673 36.6484L49.1972 43.4036L49.2297 43.4673C49.9441 44.6463 51.3729 47.0043 52.9317 48.0877L54.0358 50.1907H46.5668Z" fill="#BD732C"/>
<path d="M51.7319 49.5529L51.3747 49.0749L51.0175 49.5848H50.0433L47.6077 49.6166L48.0299 48.7563L50.0433 48.6926L52.0567 48.6288L52.4463 49.5529H51.7319ZM45.5944 43.4668L46.7959 40.599C46.3088 41.2682 45.7892 41.8417 45.2697 42.3197C44.815 42.7339 44.3279 43.0844 43.8408 43.3712H43.5161H39.4244H38.3528H35.6899H34.1961L32.41 45.7929V47.6729H30.624H29.1952L30.624 43.9129L30.6565 43.8173L30.624 43.7217C29.6173 41.2363 29.9421 38.4323 30.624 35.5326V35.5008C29.4874 37.8268 28.7081 40.2167 29.1627 42.9251H27.7987H25.9478L25.2334 42.5109C26.24 39.2289 25.688 37.317 24.1292 36.3292L23.6421 36.7753C25.2334 38.273 25.8179 40.1211 23.9669 42.7658L21.0118 44.0404L19.6803 45.2512L19.0634 47.8003L16.3031 47.7366H16.0758L16.3031 46.8763L17.1149 43.9448L18.8035 42.1604L20.07 36.9028L21.7586 34.0031C22.4731 33.5571 23.4473 32.6649 24.1617 32.2188L27.7987 27.2798L28.9354 25.7185L30.624 24.4121L32.8972 22.6595L32.5724 25.9415C32.3776 27.0886 34.4234 27.6303 35.6574 28.3632C35.8198 28.4588 35.9497 28.5544 36.0796 28.65C36.2419 29.5741 35.625 29.9564 36.2419 30.3706C36.9563 30.8168 37.6383 31.3584 38.2878 31.7727C38.645 32.0276 39.0022 32.2506 39.3594 32.41C39.4568 32.4418 39.5218 32.4737 39.6192 32.5055H43.3537L43.4836 32.3781L45.2371 30.5937L45.6593 30.1476L46.9258 33.2384L48.1598 36.2655L48.0299 43.3075L50.0433 46.2709L50.9526 47.641H50.0433H48.4521L46.9583 45.4424L45.5944 43.4668ZM31.3709 49.5529L31.0137 48.8837L30.6565 49.2979L30.4941 49.4891L28.2859 49.521L28.838 48.5651H30.6565L32.8647 48.5332L33.0271 49.521L31.3709 49.5529ZM27.7663 48.1827L26.3375 43.7217H27.8313H29.325C29.0653 45.1556 28.4482 46.5895 27.8313 47.9915L27.7663 48.1827ZM19.8102 49.521L19.0309 49.0749L18.9984 49.5529L16.368 49.4891L15.7185 49.4573L15.9134 48.6926H16.4005H19.6803L20.1674 49.521H19.8102ZM16.7577 37.2215C16.6603 37.5401 16.5304 37.8268 16.368 38.0817C15.5887 39.2289 14.0299 39.9618 12.9908 41.1726C12.7959 39.8343 12.9908 38.7191 13.6402 37.795C14.3871 36.9347 15.3613 36.5523 16.4005 36.3292C17.667 36.0425 18.9659 35.9469 19.8427 35.2777C19.5179 36.5841 18.4788 37.2215 16.7577 37.2215ZM30.6565 21.1619C30.2993 20.9707 30.007 20.6839 29.8446 20.2697C30.072 20.0466 30.3317 19.8555 30.6565 19.728C31.7931 19.2501 33.5142 19.4094 35.6574 20.1422L35.7223 20.1104C36.2744 19.7599 36.6641 19.4094 37.2486 19.2182C37.4435 19.0908 37.8656 18.9952 38.3852 18.9633C38.71 18.9314 39.0672 18.8995 39.4568 18.8995C40.496 18.8677 41.5352 18.9633 41.8599 19.0908C42.4119 19.3138 42.9965 19.6961 43.5486 20.2697C44.198 20.9388 44.7825 21.7992 45.1722 22.8189C45.2047 22.9463 45.2697 23.1056 45.3021 23.2649C45.5294 24.1572 45.7243 25.4954 45.3021 26.1964C45.2047 26.3876 45.0423 26.5469 44.815 26.6107C43.9707 26.77 43.8083 26.2283 43.9058 24.9219H44.2305C44.815 24.8263 45.1722 23.1694 44.9125 22.9145C44.4253 22.6595 43.9058 22.6276 43.5486 22.9782C43.1913 23.3287 43.0614 23.9978 43.3212 25.2086C43.3862 25.4636 43.4836 25.7185 43.5486 25.9097C43.9707 27.1205 44.3929 27.6303 44.815 27.8853L44.9774 29.2236C44.5553 29.9883 44.2954 30.8805 43.5486 31.3266C43.4836 31.3584 43.3862 31.4221 43.2887 31.454C42.4444 31.8046 40.8857 32.2188 39.6517 31.5177L39.5543 31.2947L40.2687 31.0398C39.9764 31.0717 39.7166 31.0717 39.4568 31.0717C39.0672 31.0717 38.71 31.0079 38.3852 30.9123C37.2486 30.5619 36.859 29.6059 36.9889 28.2358L35.7223 27.3754L33.9363 26.1327C33.6116 24.6032 34.2286 22.6595 34.3584 20.9388C32.7023 21.4805 31.4683 21.5762 30.6565 21.1619ZM45.1398 19.8873C45.1722 19.8236 45.2371 19.7599 45.2697 19.6961C45.5944 19.3775 46.2764 19.3138 46.9583 19.4094C47.8026 19.505 48.6469 19.8236 48.9067 20.1741C48.5495 20.5884 47.9975 20.907 46.9583 20.9707C46.8933 20.9707 46.8284 20.9707 46.7634 20.9707C46.049 20.9388 45.5294 20.8433 45.2697 20.6521C45.0098 20.4928 44.9449 20.2379 45.1398 19.8873ZM53.1933 47.9278C51.9592 47.1312 50.8227 45.4742 50.0433 44.2634C49.816 43.9129 49.6536 43.6261 49.4912 43.3712L49.3288 36.616L46.9258 30.4663L45.8217 27.6303C46.9908 25.9097 47.2505 24.189 46.4062 22.4683C46.601 22.4365 46.7634 22.4365 46.9258 22.4046C48.0624 22.2134 49.0366 21.7992 50.0108 21.1937C50.368 20.9707 50.7252 20.7158 51.1149 20.429L50.0108 19.4094L49.0041 18.4534C49.5887 17.5612 49.9134 16.7328 50.0108 15.9999V15.2033C49.8484 13.865 48.7768 12.7498 46.9258 11.9213C46.4062 11.6983 45.8542 11.5071 45.2371 11.3159C44.9449 11.2203 44.6202 11.1565 44.2954 11.0609C44.6526 11.3796 44.9449 11.6983 45.2371 12.0169C47.2505 14.4386 46.9908 16.7328 45.2371 17.5294C44.7825 17.7525 44.198 17.848 43.5486 17.8162H43.4836C41.9248 17.5931 40.6584 17.4975 39.3919 17.4975C39.0347 17.4975 38.6774 17.5294 38.3202 17.5294C37.4759 17.5931 36.5991 17.6887 35.6574 17.8162L35.4626 17.848C30.2343 18.2941 31.2085 13.6101 34.2935 10.7104C32.7348 11.4115 31.5333 12.1125 30.624 12.8135C28.156 14.7253 27.9936 16.6372 29.5524 18.549C28.9029 18.8995 28.3183 19.3775 27.7987 19.951C27.6689 20.1104 27.539 20.2697 27.4091 20.429C27.5065 20.5884 27.6364 20.7477 27.7987 20.8751C28.3509 21.3849 29.2926 21.7992 30.624 22.2134C30.8188 22.2771 31.0461 22.3409 31.2735 22.4046C31.0461 22.532 30.8188 22.6595 30.624 22.8189C29.4874 23.5517 28.5781 24.4758 27.7987 25.4317C25.2658 28.4907 24.0318 32.1869 21.4989 33.1428C20.8818 33.6527 19.7128 34.513 19.1607 34.8316C18.1216 35.4052 17.2773 35.2458 16.368 35.3096C15.2964 35.3733 14.1598 35.692 12.5361 37.795C12.049 38.7509 11.5619 40.1211 12.8609 43.5306C13.3155 42.3516 14.0949 40.9814 15.4912 40.2485C15.816 40.1211 16.1082 39.9299 16.368 39.7069C16.8227 39.3245 17.1799 38.7509 17.3747 37.9224L18.9334 37.8587C18.7386 39.2607 18.8035 39.9299 18.219 41.3319L16.5304 43.4668L16.3355 44.0085L14.2248 50.0946H16.3355L21.2066 50.1264L20.1999 48.1508C20.3623 47.2587 20.687 46.3665 21.0118 45.4742C21.7262 44.7095 23.1551 44.2953 24.2267 43.6899H24.9736L26.24 47.5773L25.688 49.7441H27.0843C27.0194 49.9034 26.9545 50.0946 26.8895 50.2539H27.8313H30.6565H34.878C33.5466 47.4499 33.6765 45.5061 35.3976 44.4546H35.6899H38.3528H39.4244H43.5161H44.7825L45.2697 45.2512L46.8933 47.8641L46.1465 50.3495H46.9583H50.0433H54.5572L53.1933 47.9278Z" fill="#6A301A"/>
<path d="M38.7731 27.4391L38.6432 22.3408L38.351 22.9463L37.9612 23.8066L38.351 25.6229L38.7731 27.4391ZM35.7205 23.233C35.818 23.2968 35.9479 23.3605 36.0453 23.4242C36.0128 24.2846 36.4025 24.6669 37.2793 24.6351C37.5066 24.7306 37.669 24.9537 37.7664 25.2086C37.9288 23.5517 37.5716 22.4683 35.7531 22.755C35.6556 22.755 35.5582 22.7869 35.4608 22.8188C35.136 22.9463 35.4283 23.0737 35.7205 23.233ZM38.5782 28.8411C38.6432 29.1597 39.0329 29.2235 39.2927 29.2553C39.3576 29.2553 39.3901 29.2553 39.455 29.2553C39.7798 29.2553 40.0721 29.3828 40.3318 29.574C40.3968 28.9048 39.9421 28.5225 39.455 28.395C38.9679 28.2676 38.4808 28.4269 38.5782 28.8411ZM43.6441 29.2872C43.8065 29.2553 44.0988 29.1916 44.1312 28.9048C44.1962 28.5225 43.8715 28.395 43.5143 28.4906C43.1895 28.5862 42.8648 28.9367 42.8972 29.574C43.0596 29.3828 43.2869 29.2872 43.5143 29.2872C43.5467 29.2872 43.6117 29.2872 43.6441 29.2872ZM35.7205 37.7631L36.5649 39.8661L35.8504 42.0966H35.7205L34.9087 42.001L35.5582 40.0254L34.8438 38.018L35.6881 37.7312L35.7205 37.7631Z" fill="#6A301A"/>
</svg>
