<svg width="18" height="19" viewBox="0 0 18 19" fill="none" xmlns="http://www.w3.org/2000/svg">
<path d="M16.5628 9.44307C16.9594 9.05492 17.0994 8.48537 16.9281 7.95717C16.7561 7.42832 16.3068 7.04949 15.7308 6.96615L11.9843 6.568C11.9437 6.56199 11.911 6.53999 11.9143 6.54999L10.2644 2.43646C10.0277 1.95693 9.56641 1.65616 8.97044 1.63281C8.4338 1.65616 7.97182 1.95693 7.71449 2.48313L6.10521 6.50397C6.08855 6.53799 6.05521 6.56199 6.04321 6.56465L2.24271 6.96949C1.69273 7.04952 1.24341 7.42832 1.0721 7.9572C0.900107 8.48674 1.04145 9.05696 1.43609 9.44241L4.19797 12.1694C4.22597 12.1968 4.23863 12.2355 4.23197 12.2741L3.60465 15.9342C3.51066 16.4824 3.73199 17.0266 4.18198 17.3541C4.43596 17.5388 4.73395 17.6328 5.03328 17.6328C5.26393 17.6328 5.49592 17.5768 5.70991 17.4641L9.00444 15.7361L12.2896 17.4641C12.7816 17.7228 13.3676 17.6808 13.8182 17.3541C14.2682 17.0266 14.4896 16.4824 14.3949 15.9342L13.7682 12.2742C13.7616 12.2355 13.7736 12.1968 13.8042 12.1668L16.5628 9.44307Z" stroke="white" stroke-width="1.8"/>
</svg>
