<svg width="88" height="92" viewBox="0 0 88 92" fill="none" xmlns="http://www.w3.org/2000/svg">
<path d="M4.00208 71.0374C9.94612 88.512 21.0442 95.0142 37.2962 90.5439C53.5482 86.0737 67.5431 77.3364 79.2807 64.332C91.0182 51.3276 90.9054 38.567 78.9421 26.0503C66.9788 13.5336 53.6611 6.05604 38.9891 3.61771C24.3171 1.17939 13.332 7.43775 6.03359 22.3928C-1.26478 37.3479 -1.94195 53.5627 4.00208 71.0374Z" fill="#EFF3F6"/>
<path d="M86.2729 8.28976C85.3494 9.7891 83.9714 10.6768 82.0324 10.9493C81.1008 11.0802 80.3249 10.9538 79.6625 10.6165C78.9936 10.2759 78.3661 9.68206 77.8027 8.75906C77.2459 7.84706 76.9975 6.98605 77 6.16268C77.0026 5.33942 77.2563 4.48155 77.8181 3.57601C78.9269 1.789 80.4176 0.968245 82.3863 1.00093C83.4099 1.01793 84.2185 1.25087 84.8571 1.65293C85.4933 2.05342 86.0236 2.66116 86.4305 3.53083C87.2516 5.28564 87.1726 6.82897 86.2729 8.28976Z" stroke="#D98F4E" stroke-width="2"/>
<g clip-path="url(#clip0_15_5)">
<path d="M0.872403 44.0831C0.184427 44.3364 -0.170185 45.099 0.0804311 45.7896L0.917777 48.0936L7.29343 41.7178L0.872403 44.0831Z" fill="#D98F4E"/>
<path d="M6.90625 64.5623L10.7461 75.1219C10.8661 75.4553 11.1167 75.7273 11.4367 75.8739C11.6153 75.9565 11.8073 75.9992 11.9993 75.9992C12.1567 75.9992 12.3113 75.9726 12.4607 75.9166L16.6979 74.354L6.90625 64.5623Z" fill="#D98F4E"/>
<path d="M63.9173 55.5466L59.5229 43.4644L48.9766 54.0106L54.203 52.0853C54.8884 51.8239 55.6616 52.1813 55.915 52.8746C56.171 53.5652 55.8164 54.3332 55.1256 54.5866L48.4859 57.0345C48.3339 57.0905 48.1793 57.1171 48.0245 57.1171C47.4832 57.1171 46.9712 56.7838 46.7739 56.2451C46.7713 56.2371 46.7739 56.2292 46.7713 56.2212L35.5957 67.3968L63.1254 57.2531C63.816 56.9999 64.1706 56.2372 63.9173 55.5466Z" fill="#D98F4E"/>
<path d="M63.6085 33.7233L42.2758 12.3907C41.7558 11.8707 40.9105 11.8707 40.3905 12.3907L0.391939 52.3893C-0.128042 52.9093 -0.128042 53.7546 0.391939 54.2746L21.7246 75.6072C21.9832 75.8686 22.3245 75.9992 22.6659 75.9992C23.0073 75.9992 23.3485 75.8686 23.6099 75.6099L63.6085 35.6113C64.1284 35.0887 64.1284 34.2459 63.6085 33.7233ZM15.6102 48.9442L10.277 54.2772C10.0156 54.5359 9.67436 54.6666 9.333 54.6666C8.99164 54.6666 8.6504 54.536 8.38903 54.2772C7.86905 53.7573 7.86905 52.9119 8.38903 52.3919L13.7222 47.0587C14.2422 46.5388 15.0875 46.5388 15.6075 47.0587C16.1275 47.5788 16.1301 48.4214 15.6102 48.9442ZM38.636 50.6374C37.692 51.5813 36.4094 52.0347 34.9827 52.0347C32.6254 52.0347 29.8709 50.8001 27.567 48.4934C25.8817 46.8081 24.6977 44.7922 24.2365 42.819C23.7245 40.6191 24.1459 38.7045 25.4231 37.4246C26.7004 36.1446 28.6149 35.7233 30.8175 36.238C32.7908 36.6994 34.8067 37.8806 36.4919 39.5685C40.1959 43.2696 41.1399 48.1335 38.636 50.6374ZM55.6087 35.6113L50.2755 40.9445C50.0142 41.2031 49.6729 41.3338 49.3316 41.3338C48.9902 41.3338 48.649 41.2032 48.3876 40.9445C47.8676 40.4245 47.8676 39.5791 48.3876 39.0592L53.7208 33.726C54.2408 33.206 55.0861 33.206 55.6061 33.726C56.1261 34.2459 56.1287 35.0887 55.6087 35.6113Z" fill="#D98F4E"/>
</g>
<defs>
<clipPath id="clip0_15_5">
<rect width="64" height="64" fill="white" transform="translate(0 12)"/>
</clipPath>
</defs>
</svg>
