<svg width="89" height="92" viewBox="0 0 89 92" fill="none" xmlns="http://www.w3.org/2000/svg">
<path d="M5.00208 70.655C10.9461 88.1297 22.0442 94.6319 38.2962 90.1616C54.5482 85.6914 68.5431 76.954 80.2807 63.9496C92.0182 50.9452 91.9054 38.1847 79.9421 25.668C67.9788 13.1512 54.6611 5.67371 39.9891 3.23539C25.3171 0.797064 14.332 7.05543 7.03359 22.0105C-0.264778 36.9655 -0.941948 53.1804 5.00208 70.655Z" fill="#EFF3F6"/>
<path d="M87.2729 8.28976C86.3494 9.7891 84.9714 10.6768 83.0324 10.9493C82.1008 11.0802 81.3249 10.9538 80.6625 10.6165C79.9936 10.2759 79.3661 9.68206 78.8027 8.75906C78.2459 7.84706 77.9975 6.98605 78 6.16268C78.0026 5.33942 78.2563 4.48155 78.8181 3.57601C79.9269 1.789 81.4176 0.968245 83.3863 1.00093C84.4099 1.01793 85.2185 1.25087 85.8571 1.65293C86.4933 2.05342 87.0236 2.66116 87.4305 3.53083C88.2516 5.28564 88.1726 6.82897 87.2729 8.28976Z" stroke="#BF573F" stroke-width="2"/>
<path d="M50.8391 13.9375H13.161C5.904 13.9375 0 19.8415 0 27.0985C0 34.3906 5.96538 40.2595 13.0825 40.2595H18.9937V29.9478C18.9937 25.3298 22.7506 21.5728 27.3685 21.5728H27.3867C31.9949 21.5826 35.7438 25.3396 35.7438 29.9478V40.2595H50.8391C58.0961 40.2595 64 34.3555 64 27.0985C64 19.8415 58.0961 13.9375 50.8391 13.9375ZM54.5634 25.2633L47.0634 32.7633C46.3312 33.4955 45.144 33.4956 44.4118 32.7633L40.6618 29.0133C39.9295 28.281 39.9295 27.0939 40.6618 26.3616C41.3939 25.6294 42.5811 25.6294 43.3134 26.3616L45.7376 28.7857L51.9119 22.6116C52.644 21.8794 53.8312 21.8794 54.5635 22.6116C55.2956 23.3439 55.2956 24.5311 54.5634 25.2633Z" fill="#BF573F"/>
<path d="M44.0635 45.5362L31.9931 44.2815V29.9475C31.9931 27.397 29.9285 25.328 27.378 25.3225C24.8199 25.317 22.7431 27.3893 22.7431 29.9475V53.9374H22.7011L18.1357 50.1249C16.2101 48.5169 13.3366 48.8184 11.7866 50.791C10.3003 52.6828 10.5873 55.4134 12.4344 56.9548L21.701 64.6874H48.993V51.1179C48.993 48.2802 46.8794 45.8869 44.0635 45.5362Z" fill="#BF573F"/>
<path d="M22.7441 72.1875C22.7441 73.223 23.5836 74.0625 24.6191 74.0625H47.1191C48.1546 74.0625 48.9941 73.223 48.9941 72.1875V68.4375H22.7441V72.1875Z" fill="#BF573F"/>
<path d="M86.4604 67.1201C84.528 70.394 81.6338 72.3104 77.6838 72.8897C75.7478 73.1737 74.0747 72.9056 72.6192 72.1322C71.1545 71.3539 69.8332 70.0226 68.6823 68.0552C67.5387 66.1004 66.9945 64.1936 67 62.3221C67.0056 60.4508 67.561 58.5504 68.7156 56.6087C71.0115 52.7476 74.1637 50.9311 78.2549 51.002C80.3426 51.0382 82.0582 51.5359 83.4483 52.4491C84.838 53.3621 85.968 54.7334 86.8154 56.6232C88.5176 60.4191 88.3734 63.8792 86.4604 67.1201Z" stroke="#BF573F" stroke-width="2"/>
</svg>
