<svg width="89" height="92" viewBox="0 0 89 92" fill="none" xmlns="http://www.w3.org/2000/svg">
<path d="M5.00208 70.655C10.9461 88.1297 22.0442 94.6319 38.2962 90.1616C54.5482 85.6914 68.5431 76.954 80.2807 63.9496C92.0182 50.9452 91.9054 38.1847 79.9421 25.668C67.9788 13.1512 54.6611 5.67371 39.9891 3.23539C25.3171 0.797064 14.332 7.05543 7.03359 22.0105C-0.264778 36.9655 -0.941948 53.1804 5.00208 70.655Z" fill="#EFF3F6"/>
<path d="M86.4604 17.1201C84.528 20.394 81.6338 22.3104 77.6838 22.8897C75.7478 23.1737 74.0747 22.9056 72.6192 22.1322C71.1545 21.3539 69.8332 20.0226 68.6823 18.0552C67.5387 16.1004 66.9945 14.1936 67 12.3221C67.0056 10.4508 67.561 8.55042 68.7156 6.60865C71.0115 2.74759 74.1637 0.931111 78.2549 1.00199C80.3426 1.03817 82.0582 1.53591 83.4483 2.44914C84.838 3.36209 85.968 4.73338 86.8154 6.6232C88.5176 10.4191 88.3734 13.8792 86.4604 17.1201Z" stroke="#2DA0A6" stroke-width="2"/>
<path d="M11.2729 8.28976C10.3494 9.7891 8.97138 10.6768 7.03243 10.9493C6.10077 11.0802 5.32486 10.9538 4.66246 10.6165C3.99359 10.2759 3.3661 9.68206 2.80267 8.75906C2.24595 7.84706 1.99747 6.98605 2.00002 6.16268C2.00257 5.33942 2.25628 4.48155 2.81813 3.57601C3.92689 1.789 5.41756 0.968245 7.38627 1.00093C8.40989 1.01793 9.2185 1.25087 9.85713 1.65293C10.4933 2.05342 11.0236 2.66116 11.4305 3.53083C12.2516 5.28564 12.1726 6.82897 11.2729 8.28976Z" stroke="#2DA0A6" stroke-width="2"/>
<path d="M58.25 22H5.75C2.5795 22 0 24.5795 0 27.75V60.25C0 63.4205 2.5795 66 5.75 66H58.25C61.4205 66 64 63.4205 64 60.25V27.75C64 24.5795 61.4205 22 58.25 22ZM20 39.5C20 41.9814 17.9814 44 15.5 44H12.5C10.0186 44 8 41.9814 8 39.5V36.5C8 34.0186 10.0186 32 12.5 32H15.5C17.9814 32 20 34.0186 20 36.5V39.5ZM45.7124 49.7137C45.2789 49.7137 44.8424 49.5735 44.4755 49.2844C43.6081 48.6005 43.4591 47.343 44.143 46.4755C44.7038 45.7645 45 44.9084 45 44C45 43.0916 44.7037 42.2355 44.1431 41.5244C43.4592 40.657 43.6082 39.3994 44.4756 38.7155C45.343 38.0319 46.6006 38.1805 47.2845 39.048C48.3908 40.4515 49 42.2101 49 44C49 45.7899 48.3908 47.5485 47.2844 48.9519C46.8897 49.4525 46.304 49.7137 45.7124 49.7137ZM52.1673 54.0145C51.7724 54.4546 51.2264 54.6787 50.6781 54.6787C50.2022 54.6787 49.7249 54.51 49.3429 54.1673C48.5209 53.4296 48.4524 52.165 49.1901 51.343C51.0021 49.3237 52 46.716 52 44C52 41.284 51.0021 38.6763 49.1901 36.657C48.4524 35.8349 48.5209 34.5704 49.3429 33.8328C50.165 33.0951 51.4294 33.1634 52.1673 33.9855C54.6388 36.7397 56 40.2964 56 44C56 47.7036 54.6388 51.2603 52.1673 54.0145Z" fill="#2DA0A6"/>
</svg>
